<?xml version="1.0" encoding="UTF-8"?>
<svg id="Layer_1" xmlns="http://www.w3.org/2000/svg" version="1.1" viewBox="0 0 144 144">
  <!-- Generator: Adobe Illustrator 29.0.1, SVG Export Plug-In . SVG Version: 2.1.0 Build 192)  -->
  <defs>
    <style>
      .st0 {
        fill: #fff;
      }

      .st1 {
        fill: #0e5aa8;
      }
    </style>
  </defs>
  <circle class="st0" cx="73.58" cy="74.86" r="61.98"/>
  <path class="st1" d="M73.58,132.89c-32,0-58.04-26.04-58.04-58.04s26.04-58.04,58.04-58.04,58.04,26.04,58.04,58.04-26.04,58.04-58.04,58.04ZM73.58,18.7c-30.97,0-56.16,25.19-56.16,56.16s25.19,56.16,56.16,56.16,56.16-25.19,56.16-56.16-25.19-56.16-56.16-56.16Z"/>
  <g>
    <path class="st1" d="M68.82,32.41c.05,1.99.1,3.97.15,5.99h6.94v2.76h-6.15v2.15c.18,0,.36,0,.54,0,3.14,0,6.28,0,9.41,0,.34,0,.49.11.62.42,1.17,2.91,2.35,5.81,3.53,8.71.05.12.1.23.17.4.72-.18,1.44-.35,2.14-.56.41-.12.63-.08.78.37.24.71.57,1.39.87,2.12-1.75.55-3.47,1.09-5.23,1.65-.07-.16-.14-.3-.2-.44-1.32-3.16-2.65-6.33-3.96-9.5-.15-.35-.3-.49-.71-.48-3.39.04-6.79.06-10.18.08-.15,0-.31,0-.5,0-.06-.66-.13-1.3-.19-1.93-.27-3.12-.53-6.25-.8-9.37-.09-1.02-.16-2.05-.27-3.07-.04-.33-.14-.66-.29-.96-.76-1.55-.09-3.42,1.51-4.14,1.62-.73,3.54.07,4.16,1.73.61,1.61-.27,3.41-1.92,3.96-.13.04-.27.08-.42.13Z"/>
    <path class="st1" d="M78.93,49.71h-.03c-.54,4.01-3.98,7.11-8.15,7.11-4.54,0-8.23-3.68-8.23-8.23,0-2.61,1.22-4.94,3.12-6.45l-.34-3.58c-3.55,1.93-5.96,5.7-5.96,10.03,0,6.3,5.11,11.41,11.41,11.41,4.1,0,7.69-2.16,9.7-5.4l-1.52-4.89Z"/>
  </g>
  <g>
    <path class="st1" d="M26.64,74.68c.36-.24.79-.36,1.27-.36.27,0,.52.04.75.12s.44.19.61.33c.18.14.32.32.44.52.11.2.19.44.23.7h2.01c-.06-.55-.21-1.03-.44-1.45-.23-.42-.52-.78-.89-1.07s-.78-.52-1.24-.67c-.47-.15-.97-.23-1.52-.23-.83,0-1.57.19-2.24.57-.66.38-1.19.93-1.57,1.65-.39.72-.58,1.59-.58,2.62s.19,1.9.57,2.62c.38.72.9,1.27,1.56,1.65.66.38,1.41.57,2.25.57.6,0,1.15-.09,1.63-.27.48-.18.89-.43,1.24-.75s.62-.67.83-1.07.34-.82.39-1.25h-2.01c-.05.24-.13.47-.25.66s-.27.36-.44.5-.38.24-.61.31c-.23.07-.48.11-.74.11-.48,0-.89-.12-1.26-.35-.36-.23-.64-.58-.84-1.03-.2-.46-.3-1.02-.3-1.69s.1-1.21.3-1.67c.2-.46.48-.81.84-1.05Z"/>
    <path class="st1" d="M39.6,80.5c.28-.55.42-1.18.42-1.91s-.14-1.37-.42-1.92c-.28-.55-.68-.97-1.2-1.28-.52-.3-1.14-.46-1.85-.46s-1.33.15-1.85.46c-.52.31-.92.73-1.2,1.28-.28.55-.42,1.19-.42,1.92s.14,1.36.42,1.91c.28.55.68.97,1.2,1.28.52.3,1.14.46,1.85.46s1.33-.15,1.85-.46c.52-.31.92-.73,1.2-1.28ZM37.86,79.68c-.11.32-.28.58-.49.76-.22.19-.49.28-.81.28s-.6-.09-.83-.28c-.22-.19-.39-.44-.5-.76-.11-.32-.17-.69-.17-1.1s.06-.78.17-1.1c.11-.32.28-.58.5-.76.22-.19.5-.28.83-.28s.6.09.81.28.38.44.49.76c.11.32.17.69.17,1.1s-.06.78-.17,1.1Z"/>
    <path class="st1" d="M47.79,82.1v-7.06h-1.96v4.06c0,.32-.06.58-.19.8-.13.21-.29.38-.5.49-.2.11-.43.16-.66.16-.37,0-.67-.12-.89-.36-.22-.24-.33-.57-.34-.99v-4.15h-1.96v4.5c0,.55.1,1.03.31,1.42.2.4.48.7.84.92.36.22.77.32,1.25.32.53,0,.98-.13,1.35-.38.37-.25.63-.58.79-1h.07v1.28h1.88Z"/>
    <path class="st1" d="M51.31,78.11c0-.29.07-.54.2-.76s.31-.39.53-.52c.23-.12.48-.19.77-.19.13,0,.28.01.45.03.16.02.29.05.38.07v-1.74c-.09-.02-.18-.04-.3-.05-.11-.01-.22-.02-.32-.02-.4,0-.75.11-1.05.34-.3.23-.52.56-.65,1h-.07v-1.23h-1.9v7.06h1.96v-4Z"/>
    <path class="st1" d="M55.47,80.19c0,.46.09.85.29,1.15s.47.53.83.67c.35.14.77.21,1.24.19.25,0,.47-.03.65-.08.18-.04.31-.08.41-.11l-.31-1.46s-.12.02-.21.04c-.09.02-.18.03-.28.03-.13,0-.25-.02-.35-.06s-.18-.11-.23-.21c-.06-.1-.08-.24-.08-.42v-3.42h1.33v-1.47h-1.33v-1.69h-1.96v1.69h-.97v1.47h.97v3.68Z"/>
    <path class="st1" d="M65.4,79.95h3.4l.7,2.15h2.13l-3.25-9.42h-2.57l-3.25,9.42h2.13l.7-2.15ZM67.14,74.83l1.16,3.56h-2.39l1.16-3.56h.07Z"/>
    <path class="st1" d="M79.61,78.58c0-.81-.13-1.48-.39-2.02s-.61-.94-1.04-1.21-.91-.4-1.43-.4c-.4,0-.73.07-.99.2s-.48.3-.64.5c-.16.2-.29.39-.37.58h-.09v-1.19h-1.93v9.71h1.96v-3.78h.06c.09.2.22.39.39.58s.39.35.65.48c.26.13.59.19.97.19.54,0,1.02-.14,1.46-.42.43-.28.78-.69,1.03-1.23.25-.54.38-1.21.38-1.99ZM77.44,79.66c-.12.31-.28.56-.5.74-.22.18-.49.26-.81.26s-.58-.09-.8-.26c-.22-.17-.39-.42-.51-.73-.12-.31-.17-.68-.17-1.1s.06-.79.17-1.09c.12-.31.28-.55.5-.72s.49-.25.81-.25.59.09.81.26c.22.17.39.42.5.73.11.31.17.67.17,1.08s-.06.77-.17,1.09Z"/>
    <path class="st1" d="M82.88,80.97h.06c.09.2.22.39.39.58s.39.35.65.48c.26.13.59.19.97.19.54,0,1.02-.14,1.46-.42.43-.28.78-.69,1.03-1.23s.38-1.21.38-1.99-.13-1.48-.39-2.02-.61-.94-1.04-1.21c-.44-.27-.91-.4-1.43-.4-.4,0-.73.07-.99.2s-.48.3-.64.5c-.16.2-.29.39-.37.58h-.09v-1.19h-1.93v9.71h1.96v-3.78ZM83.01,77.48c.12-.31.28-.55.5-.72s.49-.25.81-.25.59.09.81.26c.22.17.39.42.5.73.11.31.17.67.17,1.08s-.06.77-.17,1.09-.28.56-.5.74c-.22.18-.49.26-.81.26s-.58-.09-.8-.26c-.22-.17-.39-.42-.51-.73-.12-.31-.17-.68-.17-1.1s.06-.79.17-1.09Z"/>
    <path class="st1" d="M93.39,75.01c-.09-.02-.18-.04-.3-.05-.11-.01-.22-.02-.32-.02-.4,0-.75.11-1.05.34-.3.23-.52.56-.65,1h-.07v-1.23h-1.9v7.06h1.96v-4c0-.29.07-.54.2-.76s.31-.39.53-.52c.23-.12.48-.19.77-.19.13,0,.28.01.45.03.16.02.29.05.38.07v-1.74Z"/>
    <path class="st1" d="M95.41,81.78c.52.3,1.14.46,1.85.46s1.33-.15,1.85-.46c.52-.31.92-.73,1.2-1.28.28-.55.42-1.18.42-1.91s-.14-1.37-.42-1.92c-.28-.55-.68-.97-1.2-1.28-.52-.3-1.14-.46-1.85-.46s-1.33.15-1.85.46c-.52.31-.92.73-1.2,1.28-.28.55-.42,1.19-.42,1.92s.14,1.36.42,1.91c.28.55.68.97,1.2,1.28ZM95.95,77.48c.11-.32.28-.58.5-.76.22-.19.5-.28.83-.28s.6.09.81.28.38.44.49.76c.11.32.17.69.17,1.1s-.06.78-.17,1.1c-.11.32-.28.58-.49.76-.22.19-.49.28-.81.28s-.6-.09-.83-.28c-.22-.19-.39-.44-.5-.76-.11-.32-.17-.69-.17-1.1s.06-.78.17-1.1Z"/>
    <polygon class="st1" points="105.9 82.1 108.37 75.04 106.3 75.04 104.83 80.09 104.76 80.09 103.29 75.04 101.22 75.04 103.69 82.1 105.9 82.1"/>
    <path class="st1" d="M114.64,75.84c-.3-.3-.66-.52-1.06-.67-.4-.15-.84-.22-1.3-.22-.69,0-1.3.15-1.81.46s-.91.73-1.19,1.28c-.28.55-.42,1.19-.42,1.91s.14,1.39.42,1.93c.28.54.68.96,1.21,1.26.52.3,1.15.44,1.87.44.58,0,1.1-.09,1.54-.27.45-.18.81-.43,1.09-.75.28-.32.47-.7.56-1.14l-1.81-.12c-.07.18-.17.33-.29.45s-.28.21-.46.28-.38.09-.6.09c-.33,0-.61-.07-.85-.21s-.42-.33-.55-.59c-.13-.25-.19-.56-.19-.91h0s4.81,0,4.81,0v-.54c0-.6-.08-1.13-.25-1.58-.17-.45-.4-.82-.71-1.12ZM110.8,77.86c.01-.25.07-.49.19-.7.13-.23.31-.41.54-.55.23-.14.49-.2.79-.2s.54.06.75.19.39.3.51.51.18.47.18.75h-2.96Z"/>
    <path class="st1" d="M121.55,72.68v3.54h-.06c-.09-.19-.21-.38-.38-.58-.16-.2-.38-.36-.64-.5-.26-.13-.6-.2-.99-.2-.52,0-.99.13-1.43.4s-.78.67-1.04,1.21-.39,1.21-.39,2.02.13,1.45.38,1.99.6.95,1.03,1.23c.43.28.92.42,1.46.42.38,0,.7-.06.97-.19.26-.13.48-.28.65-.48.17-.19.3-.39.39-.58h.08v1.13h1.93v-9.42h-1.96ZM121.41,79.67c-.12.31-.29.56-.51.73-.22.17-.49.26-.8.26s-.59-.09-.81-.26c-.22-.18-.39-.42-.5-.74s-.17-.68-.17-1.09.06-.77.17-1.08c.11-.31.28-.55.5-.73.22-.18.49-.26.81-.26s.58.08.81.25c.22.17.39.41.51.72.12.31.17.67.17,1.09s-.06.79-.18,1.1Z"/>
    <path class="st1" d="M40.82,89.32l-2.98,8.48h1.64l.7-2.09h3.19l.7,2.09h1.64l-2.99-8.48h-1.9ZM40.59,94.47l1.15-3.42h.07l1.15,3.42h-2.36Z"/>
    <path class="st1" d="M51.66,96.82c.23-.35.36-.75.4-1.19h-1.43c-.04.23-.13.42-.25.58-.12.16-.27.28-.44.37-.18.08-.37.13-.59.13-.31,0-.58-.08-.81-.25-.23-.17-.41-.4-.54-.72-.13-.31-.19-.68-.19-1.12s.06-.79.19-1.1.31-.54.54-.71.5-.25.81-.25c.36,0,.65.1.87.31s.35.46.41.77h1.43c-.03-.46-.17-.86-.41-1.2-.24-.34-.56-.61-.95-.8s-.86-.28-1.37-.28c-.62,0-1.16.14-1.61.42-.45.28-.8.66-1.05,1.16-.25.5-.37,1.07-.37,1.71s.12,1.21.37,1.7c.24.49.59.88,1.05,1.16.45.28,1,.42,1.63.42.53,0,1-.1,1.39-.29s.71-.46.94-.81Z"/>
    <path class="st1" d="M58.79,95.62h-1.43c-.04.23-.13.42-.25.58-.12.16-.27.28-.44.37-.18.08-.37.13-.59.13-.31,0-.58-.08-.81-.25-.23-.17-.41-.4-.54-.72-.13-.31-.19-.68-.19-1.12s.06-.79.19-1.1.31-.54.54-.71.5-.25.81-.25c.36,0,.65.1.87.31s.35.46.41.77h1.43c-.03-.46-.17-.86-.41-1.2-.24-.34-.56-.61-.95-.8s-.86-.28-1.37-.28c-.62,0-1.16.14-1.61.42-.45.28-.8.66-1.05,1.16-.25.5-.37,1.07-.37,1.71s.12,1.21.37,1.7c.24.49.59.88,1.05,1.16.45.28,1,.42,1.63.42.53,0,1-.1,1.39-.29s.71-.46.94-.81.36-.75.4-1.19Z"/>
    <path class="st1" d="M61.19,97.52c.46.27,1.01.4,1.65.4.49,0,.93-.08,1.32-.23.38-.15.7-.36.95-.64.25-.28.41-.6.5-.97l-1.4-.16c-.07.18-.16.33-.29.45-.13.12-.28.21-.46.27-.18.06-.37.09-.59.09-.33,0-.61-.07-.85-.21s-.43-.34-.57-.6c-.13-.25-.19-.56-.2-.91h4.42v-.46c0-.56-.08-1.04-.23-1.44-.15-.4-.37-.74-.63-1-.27-.26-.58-.46-.93-.58-.35-.13-.72-.19-1.11-.19-.61,0-1.14.14-1.58.42-.45.28-.8.66-1.05,1.16-.25.5-.37,1.07-.37,1.72s.12,1.24.37,1.73c.25.49.6.87,1.07,1.13ZM61.97,92.74c.23-.15.5-.22.81-.22.29,0,.54.07.76.19.22.13.39.31.51.53s.18.48.19.77h-2.98c.01-.25.07-.48.18-.69.13-.24.31-.43.54-.58Z"/>
    <path class="st1" d="M68.63,92.68c.21-.13.47-.2.79-.2.23,0,.43.04.59.11.16.07.29.17.38.29s.16.25.2.39l1.37-.15c-.1-.54-.37-.97-.8-1.29s-1.02-.48-1.76-.48c-.51,0-.95.08-1.34.24-.39.16-.69.38-.91.67-.22.29-.32.63-.32,1.02,0,.46.14.85.44,1.15.29.3.74.52,1.35.64l1.08.23c.29.06.51.15.65.27.14.12.21.27.21.45,0,.22-.11.4-.33.54-.22.15-.5.22-.86.22s-.63-.07-.84-.22-.36-.36-.42-.65l-1.46.14c.09.59.37,1.04.85,1.37.47.33,1.1.49,1.88.49.53,0,1-.09,1.41-.26s.73-.41.96-.71c.23-.3.35-.66.35-1.06,0-.45-.15-.82-.45-1.1-.29-.28-.74-.49-1.34-.62l-1.08-.23c-.32-.07-.55-.17-.69-.29-.14-.12-.21-.27-.2-.45,0-.22.1-.39.31-.53Z"/>
    <path class="st1" d="M76.7,94.17l-1.08-.23c-.32-.07-.55-.17-.69-.29-.14-.12-.21-.27-.2-.45,0-.22.1-.39.31-.53.21-.13.47-.2.79-.2.23,0,.43.04.59.11.16.07.29.17.38.29s.16.25.2.39l1.37-.15c-.1-.54-.37-.97-.8-1.29s-1.02-.48-1.76-.48c-.51,0-.95.08-1.34.24-.39.16-.69.38-.91.67-.22.29-.32.63-.32,1.02,0,.46.14.85.44,1.15.29.3.74.52,1.35.64l1.08.23c.29.06.51.15.65.27.14.12.21.27.21.45,0,.22-.11.4-.33.54-.22.15-.5.22-.86.22s-.63-.07-.84-.22-.36-.36-.42-.65l-1.46.14c.09.59.37,1.04.85,1.37.47.33,1.1.49,1.88.49.53,0,1-.09,1.41-.26s.73-.41.96-.71c.23-.3.35-.66.35-1.06,0-.45-.15-.82-.45-1.1-.29-.28-.74-.49-1.34-.62Z"/>
    <path class="st1" d="M79.87,90.3c.17.16.38.24.61.24s.45-.08.61-.24c.17-.16.26-.35.26-.57s-.08-.42-.26-.58c-.17-.16-.37-.24-.61-.24s-.44.08-.61.24-.26.35-.26.58.09.41.26.57Z"/>
    <rect class="st1" x="79.73" y="91.44" width="1.5" height="6.36"/>
    <path class="st1" d="M88.49,96.41c.23-.49.34-1.08.34-1.78s-.12-1.3-.35-1.79-.55-.86-.94-1.1-.84-.38-1.33-.38c-.37,0-.68.06-.92.19-.24.13-.43.28-.57.45-.14.18-.25.34-.33.49h-.06v-3.17h-1.5v8.48h1.47v-1h.09c.08.15.19.32.34.49.14.17.34.32.58.44s.54.18.91.18c.5,0,.95-.13,1.34-.38s.71-.63.94-1.12ZM87.14,95.68c-.11.31-.28.55-.51.73s-.5.27-.83.27-.59-.09-.81-.26c-.22-.17-.39-.41-.51-.72-.12-.31-.18-.67-.18-1.08s.06-.77.17-1.07c.11-.3.28-.54.51-.71.22-.17.49-.25.81-.25s.61.09.84.26c.22.17.39.41.51.72.11.31.17.66.17,1.05s-.06.75-.17,1.06Z"/>
    <rect class="st1" x="90.12" y="91.44" width="1.5" height="6.36"/>
    <path class="st1" d="M91.48,89.15c-.17-.16-.37-.24-.61-.24s-.44.08-.61.24-.26.35-.26.58.09.41.26.57.38.24.61.24.45-.08.61-.24c.17-.16.26-.35.26-.57s-.08-.42-.26-.58Z"/>
    <rect class="st1" x="93.15" y="89.32" width="1.5" height="8.48"/>
    <rect class="st1" x="96.19" y="91.44" width="1.5" height="6.36"/>
    <path class="st1" d="M96.94,88.91c-.24,0-.44.08-.61.24s-.26.35-.26.58.09.41.26.57.38.24.61.24.45-.08.61-.24c.17-.16.26-.35.26-.57s-.08-.42-.26-.58c-.17-.16-.37-.24-.61-.24Z"/>
    <path class="st1" d="M102.09,96.6c-.08.01-.17.02-.26.02-.12,0-.24-.02-.34-.06-.1-.04-.18-.11-.25-.22s-.09-.26-.09-.46v-3.29h1.25v-1.16h-1.25v-1.52h-1.5v1.52h-.9v1.16h.9v3.53c0,.4.08.73.26.99.18.26.41.46.71.59.3.13.64.18,1.01.17.21,0,.39-.02.54-.06.15-.03.26-.06.34-.09l-.25-1.17s-.1.02-.18.04Z"/>
    <path class="st1" d="M106.28,96.24h-.07l-1.47-4.8h-1.59l2.31,6.49-.13.34c-.09.24-.2.41-.33.52-.13.1-.28.16-.45.16-.17,0-.37-.03-.58-.09l-.35,1.17c.1.04.24.08.41.11.17.03.36.05.57.05.39,0,.73-.06,1.01-.19.28-.13.52-.31.72-.56s.35-.53.47-.87l2.55-7.13h-1.59l-1.47,4.8Z"/>
    <path class="st1" d="M55.55,103.67c-.44-.24-.99-.36-1.64-.36h-3.18v8.48h1.54v-2.86h1.62c.65,0,1.21-.12,1.65-.36.45-.24.79-.57,1.01-1,.23-.42.34-.91.34-1.45s-.11-1.02-.34-1.44-.56-.76-1.01-1ZM55.16,106.91c-.12.23-.3.41-.54.55-.24.13-.55.2-.93.2h-1.42v-3.07h1.41c.38,0,.7.06.94.19.24.13.42.31.54.54.12.23.18.49.18.79s-.06.57-.18.8Z"/>
    <path class="st1" d="M61.26,105.34c-.36,0-.69.1-.97.3-.28.2-.48.48-.6.85h-.07v-1.06h-1.45v6.36h1.5v-3.74c0-.27.06-.51.19-.72.12-.21.29-.37.51-.49s.46-.18.73-.18c.13,0,.26,0,.39.03s.24.04.3.06v-1.38c-.07-.01-.16-.03-.26-.03s-.2-.01-.28-.01Z"/>
    <path class="st1" d="M66.92,105.75c-.46-.27-.99-.41-1.62-.41s-1.16.14-1.61.41-.81.66-1.06,1.15c-.25.49-.37,1.07-.37,1.73s.12,1.23.37,1.72c.25.49.6.87,1.06,1.15s.99.41,1.61.41,1.16-.14,1.62-.41.81-.66,1.06-1.15c.25-.49.37-1.07.37-1.72s-.13-1.23-.37-1.73c-.25-.49-.6-.88-1.06-1.15ZM66.66,109.68c-.11.31-.28.57-.51.75s-.51.28-.84.28-.63-.09-.86-.28-.4-.44-.51-.75c-.11-.31-.17-.67-.17-1.05s.06-.74.17-1.06c.11-.31.28-.57.51-.76.23-.19.51-.28.86-.28s.62.09.84.28c.23.19.39.44.51.76.11.32.17.67.17,1.06s-.06.74-.17,1.05Z"/>
    <polygon class="st1" points="72.02 110.15 71.95 110.15 70.49 105.43 68.89 105.43 71.16 111.78 72.81 111.78 75.07 105.43 73.48 105.43 72.02 110.15"/>
    <path class="st1" d="M76.86,102.9c-.24,0-.44.08-.61.24-.17.16-.26.35-.26.58s.09.41.26.57c.17.16.38.24.61.24s.45-.08.61-.24c.17-.16.26-.35.26-.57s-.08-.42-.26-.58c-.17-.16-.37-.24-.61-.24Z"/>
    <rect class="st1" x="76.11" y="105.43" width="1.5" height="6.36"/>
    <path class="st1" d="M83.39,106.48h-.06c-.08-.15-.19-.32-.33-.49-.14-.18-.33-.33-.57-.45-.24-.13-.55-.19-.92-.19-.49,0-.93.13-1.33.38-.4.25-.71.62-.95,1.1s-.35,1.08-.35,1.79.11,1.29.34,1.78.54.86.94,1.12c.39.26.84.38,1.34.38.36,0,.67-.06.91-.18s.43-.27.58-.44c.15-.17.26-.34.34-.49h.09v1h1.47v-8.48h-1.5v3.17ZM83.25,109.68c-.12.31-.29.55-.51.72-.22.17-.49.26-.81.26s-.61-.09-.83-.27c-.23-.18-.39-.42-.51-.73-.12-.31-.17-.67-.17-1.06s.06-.75.17-1.05c.11-.31.28-.55.51-.72.22-.17.5-.26.84-.26s.59.08.82.25.39.4.5.71c.12.3.17.66.17,1.07s-.06.77-.17,1.08Z"/>
    <path class="st1" d="M91.27,106.11c-.27-.26-.58-.46-.93-.58-.35-.13-.72-.19-1.11-.19-.61,0-1.14.14-1.58.42-.45.28-.8.66-1.05,1.16-.25.49-.37,1.07-.37,1.72s.12,1.24.37,1.73c.25.49.6.87,1.07,1.13.46.27,1.01.4,1.65.4.49,0,.93-.08,1.32-.23.38-.15.7-.36.95-.64.25-.28.41-.6.5-.97l-1.4-.16c-.07.18-.16.33-.29.45-.13.12-.28.21-.46.27-.18.06-.37.09-.59.09-.33,0-.61-.07-.85-.21s-.43-.34-.57-.6c-.13-.25-.19-.56-.2-.91h4.42v-.46c0-.56-.08-1.04-.23-1.44-.15-.4-.37-.74-.63-1ZM87.72,108.01c.01-.25.07-.48.18-.69.13-.24.31-.43.54-.58.23-.15.5-.22.81-.22.29,0,.54.07.76.19.22.13.39.31.51.53s.18.48.19.77h-2.98Z"/>
    <path class="st1" d="M96.49,105.34c-.36,0-.69.1-.97.3-.28.2-.48.48-.6.85h-.07v-1.06h-1.45v6.36h1.5v-3.74c0-.27.06-.51.19-.72.12-.21.29-.37.51-.49s.46-.18.73-.18c.13,0,.26,0,.39.03s.24.04.3.06v-1.38c-.07-.01-.16-.03-.26-.03s-.2-.01-.28-.01Z"/>
  </g>
</svg>