<?xml version="1.0" encoding="UTF-8"?>
<svg id="Layer_1" xmlns="http://www.w3.org/2000/svg" version="1.1" viewBox="0 0 51.53 50.74">
  <!-- Generator: Adobe Illustrator 29.0.1, SVG Export Plug-In . SVG Version: 2.1.0 Build 192)  -->
  <defs>
    <style>
      .st0 {
        fill: #fe4755;
      }

      .st1 {
        fill: #292929;
      }

      .st2 {
        fill: #80d060;
      }

      .st3 {
        fill: #97da7b;
      }

      .st4 {
        fill: #fb2b3a;
      }

      .st5 {
        fill: #d9b8d7;
      }

      .st6 {
        fill: #fee17a;
      }

      .st7 {
        fill: #81d260;
      }

      .st8 {
        fill: #f8ce58;
      }

      .st9 {
        fill: #282828;
      }

      .st10 {
        fill: #fefefe;
      }

      .st11 {
        fill: #81d160;
      }

      .st12 {
        fill: #ebd9eb;
      }

      .st13 {
        fill: #e1cae1;
      }
    </style>
  </defs>
  <path class="st10" d="M2.15,9.61c.93.65,1.32.14,1.18-1.53-.09-1.5-.12-3-.08-4.5,0-.36.25-1.14.66-.9l.07-.19h23.41l.12.19c.08,0,.19.04.19.09.06,1.98.07,4.19,0,6.16.07.38,0,.62-.19.73l.2.05c.22.8.74,1.28,1.48,1.59l.08.21.09-.19h6.87l.11.19h.13c.08,1.4.1,2.81.06,4.26l-.19.11-.41.09c-1.65-.49-3.34-.75-5.1-.73-5,.05-9.99.08-14.96.11-.46.3-.41.88.16.98l.04.22.07-.19h9.74l.11.19.03.2c-1,.62-1.95,1.31-2.86,2.05l-7.32.04c-.52.14-.14.86.04,1.13l.09-.19h5.83l.11.19.07.28c-1.06,1.49-1.79,3.13-2.22,4.93-.11.12-.25.14-.41.13l-2.67-.03c-1.08-.07-1.38.33-.81,1.24,0-.07.02-.19.06-.19.4-.02,3.23-.07,3.38,0l.11.19c.26.15.19.32-.09.24.07,0,.18.03.19.08.02.21.03,1.61-.06,1.71-.03.03-.08.05-.13.06,0,.07-.02.19-.06.19-.47.03-2.96.09-3.23,0-.09-.03-.14-.06-.17-.19-.39.52-.39.9-.02,1.13h3.16c.26-.02.5.04.7.17.4,1.93,1.25,3.58,2.29,5.23l-.1.21-.09.19h-5.83l-.11-.19c-.17.28-.56.97-.03,1.13l7.3.03c.91.74,1.86,1.4,2.84,2.03v.23l-.06.19h-9.74l-.11-.19-.02.21c-.67.02-.57,1.03-.05,1.03,4.94,0,9.89.04,14.83.07,1.76.02,3.45-.25,5.11-.74l.39.09.19.07v8.41l-.19.12c.25.2-.23.54-.47.57H3.99c-.37-.03-.67-.39-.7-.76V12.33c-.14-.72-.65-.65-1.13-.25-.03.08-.06.08-.09,0v-2.47c.03-.08.06-.08.09,0h0Z"/>
  <path d="M28.35,1.36l.38.14,8.91,8.94c.1.14.1.3.11.46.17,1.8-.13,3.86,0,5.68,2.67,1.44,4.81,3.83,5.87,6.68.19.51.73,2.14.54,2.58-.1.23-.37.29-.52.38-.29.33-.58.18-.85-.16-3.27-15.13-24.81-10.47-21.43,4.53.24.52.35,1.03.34,1.52,2.15,3.97,5.76,6.53,10.35,6.45s8.01-2.69,10.06-6.64l-.07-.32c.43-1.11.69-2.28.78-3.5.1-.28.61-.83.81-.46.25,0,.68.36.74.64.07.3-.13,1.39-.2,1.75-.31,1.63-.98,3.04-1.76,4.48.02.11,1.5,1.58,1.6,1.63.24.12.51-.47,1.33.18s4.55,4.39,4.95,5.2c1.58,3.21-2.27,6.35-5.09,4.14-1.65-1.29-3.16-3.42-4.8-4.79-.43-.62.07-.87-.04-1.09-.05-.1-1.4-1.45-1.52-1.53-.29-.19-.79.32-1.1.45l-.02,9.26c-.16.86-.68,1.54-1.55,1.78-10.61.24-21.27.03-31.89.1-1.17-.09-1.82-.64-2.23-1.71v-.19c.04-11.82.07-23.78.09-35.88.11-.72,1.22-.67,1.33.24v35.42c-.05.31.17.48.38.66h32.08c.07-.07.38-.35.38-.38v-8.59c-1.26.33-2.53.69-3.84.76-5.37.31-11.03-.24-16.43,0-.62.02-.91-.83-.5-1.21.03-.03.47-.21.5-.21h9.92l-1.8-1.19-1.1-.89-7.29-.02c-.68-.2-.42-1.31.08-1.31h6.03l-1.44-2.5c-.14-.41-.35-.81-.49-1.22-.09-.28-.34-1.52-.4-1.6-.16-.23-3.27,0-3.78-.11-.68-.2-.42-1.31.08-1.31h3.46v-1.85s.13-.14.09-.24h-3.56c-.47,0-.82-1.18.04-1.38.6-.14,3.56.06,3.7-.06.27-1.24.71-2.46,1.32-3.57.3-.54.71-1,.97-1.55h-6.03c-.5,0-.76-1.11-.08-1.31l7.29-.02,1.54-1.21,1.36-.87h-9.92s-.47-.19-.5-.21c-.41-.38-.12-1.24.5-1.21,5.4.24,11.06-.31,16.43,0,1.31.08,2.59.42,3.84.76v-4.37h-7.07c-.25,0-1.05-.53-1.24-.76-.15-.19-.52-.89-.52-1.09V2.68H3.88c-.13,0-.41.47-.43.61-.25,1.89.23,4.29-.04,6.23-.08.68-1.18.78-1.29.09-.02-2.2-.05-4.35-.09-6.46v-.19c.02-.99.83-1.7,1.8-1.71h.09c8.02.04,16.15.07,24.4.09l.03.02Z"/>
  <path class="st9" d="M2.05,47.97V12.08h.09c-.09,11.78.13,23.58,0,35.36,0,.16.06.42-.1.52h.01Z"/>
  <path class="st9" d="M28.35,1.26v.09c-7.96-.06-15.92.09-23.88,0-.16,0-.42.06-.52-.1h24.4Z"/>
  <path class="st1" d="M2.15,9.61h-.09V3.15c.16.1.09.36.1.52.02,1.98-.02,3.96,0,5.93h-.01Z"/>
  <path d="M8.2,24.45c.67-.11,2.99-.11,3.67,0,.39.05.89.37,1.1.7.38.61.36,3.11.28,3.89-.08.85-.58,1.56-1.47,1.66-.74.08-2.58.08-3.32,0-.68-.08-1.39-.55-1.47-1.28s-.1-3.11,0-3.79c.08-.53.68-1.08,1.2-1.17h0Z"/>
  <path d="M8.1,14.48c.63-.12,3.2-.11,3.86-.01.52.07.97.46,1.14.94.23.63.22,2.92.14,3.65-.07.67-.38,1.29-1.04,1.52-.72.25-3.61.23-4.32-.04-.51-.2-.84-.66-.9-1.19-.08-.72-.1-3.01,0-3.7.08-.53.57-1.07,1.11-1.17h0Z"/>
  <path d="M7.4,40.43c-.09-.09-.3-.45-.34-.56-.15-.47-.14-3.31-.07-3.91.06-.54.43-1.04.95-1.23.66-.24,3.69-.23,4.34.03s.92.91.98,1.58c.06.75.09,3-.17,3.63-.23.55-.71.83-1.3.89-.84.08-2.68.09-3.52,0-.31-.03-.66-.19-.87-.41v-.02Z"/>
  <path class="st13" d="M43.63,26.23s-.19.1-.19.15c0,.3.15.94.19,1.27-.21,0-.59.32-.64.54-.15.68-.15,1.49-.34,2.23-.13.52-.34,1.01-.54,1.5-4.16,7.94-16.1,8-20.41.19-3.53-8.13,3.18-16.74,11.9-15.46,4.73.69,8.48,4.56,9.29,9.22.15.32.4.4.74.35h0Z"/>
  <path class="st13" d="M35.28,10.09h-5.84c-.11,0-.52-.41-.52-.52V3.73l6.36,6.36Z"/>
  <path class="st0" d="M48.66,44.36c-.67.46-1.48-.05-2.04-.48-.51-.4-3.94-3.73-3.97-4.01l.13-.25c.47-.48,1.25-1.46,1.75-1.81.08-.06.13-.14.24-.05,1.14,1.31,2.69,2.48,3.8,3.8.79.95.98,1.85.09,2.8Z"/>
  <path class="st5" d="M21.7,32.11c2.85,4.25,7.6,6.45,12.72,5.36,3.28-.69,5.88-2.8,7.69-5.55-3.73,9.02-16.52,9.13-20.41.19Z"/>
  <path class="st4" d="M48.66,44.36c-.73.79-1.61.87-2.52.28l-4.22-4.22c0-.08.73-.68.85-.81,0,.19.13.26.24.38.98,1.06,2.71,2.94,3.8,3.79.56.44,1.12.66,1.85.57h0Z"/>
  <path class="st12" d="M42.21,38.09c-.06.05-.13.11-.19.08-.09-.04-1.24-1.14-1.36-1.27l.03-.23c.23-.23.65-1.1,1-.86.44.3.93,1.03,1.37,1.4.03.18-.69.74-.85.89h0Z"/>
  <path class="st13" d="M40.69,36.67l1.52,1.42c-.21.2-.59.88-.9.67-.14-.09-1.35-1.3-1.37-1.4-.05-.27.66-.61.75-.7h0Z"/>
  <path class="st3" d="M11.74,25.85c.09.79.14,1.71,0,2.47,0,.07-.02.19-.06.19-.89.06-2.11.05-3,0l-.11-.19c-.07.04-.13.07-.14.06-.2-.29-.05-2,0-2.43q.09-.09.23-.1c.96-.11,2.11.09,3.09,0h-.01Z"/>
  <path class="st7" d="M8.41,25.94c.05.3-.13,2.37.14,2.37h3.18v-2.47c.13,0,.09.14.1.23.07.59.07,2.27,0,2.86-.01.1-.04.33-.15.33h-3.23c-.1,0-.14-.23-.15-.33-.07-.6-.07-2.17,0-2.77.01-.13,0-.13.1-.23h0Z"/>
  <path class="st3" d="M11.74,15.88c.09.77.14,1.65,0,2.37-.02.07-.05.19-.11.19-.62.05-2.53.1-3.07,0l-.14-.19c-.11-.72-.09-1.53,0-2.28.03-.04.03-.11.09-.14.2-.09,2.63-.09,3-.05.13.01.13,0,.23.1Z"/>
  <path class="st11" d="M11.74,15.88q.09.09.1.23c.07.62.07,2.25,0,2.86-.01.1-.04.33-.15.33h-3.27c-.1-.91-.19-2.09-.1-3,.02-.18,0-.18.1-.32v2.28h3.32v-2.37h0Z"/>
  <path class="st3" d="M11.74,36.1c.09.77.14,1.65,0,2.37-.02.07-.05.19-.11.19-.39.02-3.03.04-3.15-.06-.03-.03-.05-.08-.06-.13-.11-.74-.09-1.6,0-2.37.13-.13.17-.09.32-.1.69-.06,2.1-.07,2.77,0,.13,0,.13,0,.23.1Z"/>
  <path class="st2" d="M8.41,36.1v2.37h3.32v-2.37q.09.09.1.23c.07.62.07,2.25,0,2.86-.01.1-.04.33-.15.33h-3.13s-.17-.15-.19-.19c-.09-.19-.09-2.64-.05-3,.01-.13,0-.13.1-.23Z"/>
  <path d="M24.55,32.21c-.07-.38.72-.34.93-.18,3.77,5.01,11.03,4.09,13.69-1.53l-.08-.34c2.42-6.86-5.38-12.99-11.49-8.9-2.65,1.78-4.25,5.7-3.07,8.75l-.07.3c.12.33-.13.93-.47.66-1.01.27-1.21-1.23-1.32-1.96-1.49-10.07,12.17-14.8,17.25-6.05,5.07,8.74-5.62,18.21-13.74,12.03-.5-.38-2.59-2.15-1.62-2.79h0Z"/>
  <path class="st8" d="M39.17,30.5c-2.25,5.88-10.05,6.73-13.73,1.72-.2-.15-.7-.14-.89,0l-.57-1.23c.24-.06.33-.49.47-.66l.23.04c3.23,5.07,10.58,5.31,14.14.32l.35-.16v-.02Z"/>
  <path class="st6" d="M39.17,30.5c-2.65,3.9-7.67,5.21-11.8,2.73-.93-.56-2.45-1.95-2.91-2.92-1.38-2.88.17-7,2.57-8.87,6.23-4.85,15.02,1.56,12.14,9.06Z"/>
  <path d="M34.3,23.69c2.23-.38,3.56,1.91,2.16,3.68-1.07,1.35-2.82,2.65-3.95,4.02-.76.56-1.56.66-2.43.26-.45-.2-2.69-2.43-2.92-2.87-1.28-2.49,2.19-4.46,3.88-2.27.22,0,2.25-2.65,3.25-2.82h0Z"/>
  <path class="st3" d="M35.47,25.47l.04.25c-.89,1.16-2.03,2.48-3.19,3.42-.67.54-1.32.73-2.11.28-.18-.1-1.73-1.63-1.76-1.75,0-.06,0-.13,0-.2.64-1.56,1.95.94,2.73.79.95-.18,2.64-3.03,3.49-3.16.42-.06.58.03.8.38h0Z"/>
  <path class="st7" d="M28.44,27.46l1.87,1.79c.75.39,1.27.23,1.89-.27.9-.73,2.22-2.23,3.04-3.13.11-.12.24-.19.24-.38.29.46.12.69-.19,1.09-.63.83-2.7,2.89-3.52,3.6-.27.23-.55.37-.89.25s-2.09-1.8-2.33-2.14-.25-.43-.09-.81h-.02Z"/>
</svg>