<?xml version="1.0" encoding="UTF-8"?>
<svg id="Layer_1" xmlns="http://www.w3.org/2000/svg" version="1.1" viewBox="0 0 49.11 51.26">
  <!-- Generator: Adobe Illustrator 29.0.1, SVG Export Plug-In . SVG Version: 2.1.0 Build 192)  -->
  <defs>
    <style>
      .st0 {
        fill: #72d461;
      }

      .st1 {
        fill: #010000;
      }

      .st2 {
        fill: #fec600;
      }

      .st3 {
        fill: #edf2f5;
      }

      .st4 {
        fill: #e5f7fe;
      }

      .st5 {
        fill: #fed92d;
      }

      .st6 {
        fill: #98b6c0;
      }

      .st7 {
        fill: #00242f;
      }

      .st8 {
        fill: #003748;
      }

      .st9 {
        fill: #2fa743;
      }

      .st10 {
        fill: #004960;
      }

      .st11 {
        fill: #282828;
      }

      .st12 {
        fill: #010100;
      }

      .st13 {
        fill: #cff0fe;
      }

      .st14 {
        fill: #b2cfd4;
      }

      .st15 {
        fill: #63b4f5;
      }

      .st16 {
        fill: #3cbd52;
      }
    </style>
  </defs>
  <path class="st11" d="M38.04.72v.1c0,.08-.02.2-.07.2-7.02.06-14.27.06-21.3,0l-.12-.2v-.1h21.49Z"/>
  <path d="M16.55.82h21.49c2.61.23,1.55,3.75,1.77,5.49.94.21,3,.48,3.73,1.03,1.34,1.01.46,2.28.29,3.58,1.79-.12,3.42.94,3.62,2.81v28.74c.05,1.09-1.43,2.8-2.49,2.8h-10.84l2.23,4c.16.75-.11,1.27-.85,1.46-7.5.04-15.04.14-22.53-.05-.63-.2-.82-.69-.72-1.32l2.25-4.08H3.66c-1.07,0-2.64-1.82-2.5-2.94V13.98c-.08-1.37,1.43-3.04,2.8-3.04h4.86v-2.6c0-.18.4-.76.54-.93,1.68-2.11,4.36-4.03,6.13-6.13.36-.28.63-.4,1.08-.44l-.02-.02Z"/>
  <path class="st5" d="M37.06,2.29c.08,0,.2.02.2.07.06,2.57.07,5.33,0,7.92-.02.65-.08,1.28-.2,1.92-1.07,4.12-2.17,8.24-3.25,12.35l-10.92.02c-.55.11-.78.57-.62,1.1.03.09.39.46.42.46h10.64c-.07.84-.59,1.77-.6,2.6,0,1.13.59,2.51.6,3.68h-10.64s-.39.37-.42.46c-.18.6.12,1.03.72,1.1,3.8-.26,8.13.38,11.87,0,.89-.09,1.54-1.12,2.1-1.77.06-.06.18-.11.21-.06.15.2.17,2.89.05,3.18-.21.53-.63.87-1.18,1H10.49l-.12-.19V9.06h2.75c0,.85-.14,2.19.9,2.49.58.17,4.32.16,5.04.07.6-.07,1.06-.54,1.13-1.13.12-.98.12-3.83,0-4.81-.06-.47-.56-1.13-1.03-1.13h-2.01v-2.26h19.92,0Z"/>
  <path class="st4" d="M2.72,39.77V13.81c-.02-.49.81-1.32,1.23-1.32h4.86v24.87c0,.43.95,1.34,1.42,1.43,9.38.14,18.86.19,28.24-.03.66-.22,1.27-.9,1.35-1.6v-11.37c1.33-4.28,2.15-8.87,3.53-13.11.26-.48.92.49.59.74l.2.09v26.13l-.2.12c-13.71.04-27.45.04-41.2,0h-.02Z"/>
  <path class="st10" d="M44.02,41.44s.09,0,.13.03c.23.13-.07,2.58-.95,2.27-13.04.03-26.07,0-39.11-.05-1.35-.25-1.43-1-1.37-2.26,13.77.06,27.54-.08,41.3,0h0Z"/>
  <path class="st8" d="M16.36,45.36c5.06-.09,10.12-.09,15.19,0,.19.1,1.94,3.16,2.19,3.64l-.11.2c-6.5.1-13.02-.07-19.52,0l2.08-3.67.18-.16h0Z"/>
  <path class="st13" d="M43.34,12.69c.02-.06-.06-.2.06-.2.83,0,1.49-.14,2.1.54.09.09.39.52.39.59v26.25l-43.17-.1h41.2V13.42c0-.19-.37-.61-.39-.83,0,0-.19.1-.19.1Z"/>
  <path class="st0" d="M41.28,11.71l.17.12c-1.49,5.6-2.98,11.19-4.46,16.79l-.22.07c-.76-.15-1.49-.37-2.25-.49l.02-.42,4.49-16.66c.74.22,1.52.36,2.25.59Z"/>
  <path class="st2" d="M10.37,36.14h25.65c.36-.06.93-.48,1.02-.85.12-.55.03-1.89.02-2.53,0-.17.06-.44-.1-.54.42-.49.8-1.03,1.28-1.47v6.33s-.15.17-.2.19H10.57c-.32-.16-.16-.81-.2-1.13Z"/>
  <path class="st16" d="M36.76,28.68l4.51-16.97c.31.1.69.06.57.51l-4.42,16.49c-.12.34-.47,0-.67-.03h0Z"/>
  <path class="st2" d="M37.06,12.2V2.29c.43.01,1.15-.14,1.18.44-.15,1.67.19,3.66,0,5.3-.15,1.19-.85,2.95-1.17,4.18h0Z"/>
  <path class="st15" d="M18.61,6.12v3.92h-3.83v-.98c1.77.15,2.57-1.33,2.35-2.94h1.48Z"/>
  <path class="st3" d="M15.57,3.47v3.68c0,.1-.24.34-.34.34h-3.78s4.12-4.02,4.12-4.02Z"/>
  <path class="st8" d="M44.02,41.44h1.86c.13,1.39-.26,2.22-1.72,2.35H4.43c-.13.06-.27-.09-.33-.1h39.1c.74-.09.86-1.65.83-2.26h-.01Z"/>
  <path class="st7" d="M16.36,45.36c.1-.16.37-.1.54-.1,5.09-.06,10.19.03,15.29.02l.21.18,2.11,3.58c.1.25-.72.14-.88.15l-2.23-3.83s-15.04,0-15.04,0Z"/>
  <path class="st16" d="M42.16,8.47c.32.32,0,1.62-.49,1.67-.34-.08-2.1-.41-2.22-.58.06-.26.32-1.54.44-1.63.17-.13,1.93.43,2.26.55h.01Z"/>
  <path class="st14" d="M35.98,30.16c.07.48-.67,1.42-1.18,1.37-.11-.58-.21-1.18-.29-1.77.49.11.99.25,1.47.39h0Z"/>
  <path class="st9" d="M42.16,8.47c.15.06.51.01.58.26.07.27-.39,1.25-.39,1.6-.27.1-.52-.15-.68-.19.3-.47.42-1.13.49-1.67Z"/>
  <path class="st6" d="M35.98,30.16c.14.04.57.05.49.24l-1.52,1.72c-.11-.16-.11-.4-.15-.59.47-.37.83-.89,1.18-1.37Z"/>
  <path d="M13.55,28.32c.19-.18.54-.3.8-.33,1.06-.12,3.44-.1,4.52,0,.69.06,1.23.39,1.32,1.13.12,1.03.11,3.66,0,4.72-.06.64-.46,1.14-1.13,1.22-1.02.12-3.57.1-4.62,0-.58-.05-.96-.24-1.17-.79-.26-.67-.23-3.9-.15-4.76.03-.37.16-.93.43-1.19Z"/>
  <path d="M14.07,12.42c.74-.15,4.15-.12,4.98-.02.7.08,1.07.53,1.13,1.22.08.82.12,4.3-.05,4.96-.08.33-.41.64-.72.75-.66.24-3.84.2-4.68.13-.99-.08-1.51-.37-1.61-1.43s-.09-3.16,0-4.22c.06-.63.25-1.26.95-1.4h0Z"/>
  <path d="M19.86,26.88c-.15.16-.48.3-.7.33-.69.08-4.72.09-5.22-.08-.27-.09-.56-.35-.67-.61-.26-.67-.21-3.8-.15-4.67.06-.8.2-1.53,1.13-1.62,1.12-.1,3.82-.13,4.91,0,.65.08.97.5,1.03,1.13.11,1.09.12,3.64,0,4.71-.03.26-.15.61-.33.8h0Z"/>
  <path d="M22.7,8.98l12.29.03c.68.45.52,1.43-.34,1.52h-11.58c-.96-.03-1.18-1.09-.37-1.55Z"/>
  <path class="st12" d="M23,16.74l11.46-.02c1.07-.05,1.39,1.45.3,1.57h-11.87c-.98-.11-.83-1.48.12-1.55h0Z"/>
  <path class="st1" d="M22.9,5.65c2.41.19,5.48-.34,7.82-.01,1.04.15,1.11,1.45.11,1.56-2.48.29-5.5-.21-8.04,0-.83-.13-.71-1.47.12-1.54h0Z"/>
  <path class="st1" d="M22.71,21.35l8.21-.02c1.01.27.7,1.54-.29,1.56-2.39-.2-5.21.26-7.55,0-1.09-.12-1.07-1.39-.37-1.55h0Z"/>
  <path class="st1" d="M22.9,29.1c2.41.19,5.48-.34,7.82,0,1.04.15,1.11,1.45.11,1.56-2.48.29-5.5-.21-8.04,0-.83-.13-.71-1.47.12-1.54h0Z"/>
  <path d="M22.8,13.5l8.02-.02c1.01.24.93,1.45-.09,1.57-2.41.28-5.37-.21-7.85,0-.86-.14-.9-1.31-.08-1.54h0Z"/>
  <rect class="st15" x="14.79" y="29.57" width="3.83" height="3.92"/>
  <path class="st15" d="M18.61,13.97v3.92h-3.68s-.15-.14-.15-.15v-3.78h3.83Z"/>
  <rect class="st15" x="14.79" y="21.82" width="3.83" height="3.83"/>
</svg>