<?xml version="1.0" encoding="UTF-8"?>
<svg id="Layer_1" xmlns="http://www.w3.org/2000/svg" version="1.1" viewBox="0 0 144 144">
  <!-- Generator: Adobe Illustrator 29.0.1, SVG Export Plug-In . SVG Version: 2.1.0 Build 192)  -->
  <defs>
    <style>
      .st0 {
        fill: #1576bc;
      }

      .st1 {
        fill: #fff;
      }

      .st2 {
        fill: #292a76;
      }
    </style>
  </defs>
  <g>
    <path class="st1" d="M135.56,74.85c0-34.23-27.75-61.98-61.98-61.98S11.6,40.62,11.6,74.85h123.96Z"/>
    <path class="st1" d="M11.6,74.85s0,0,0,0c0,34.23,27.75,61.98,61.98,61.98s61.98-27.75,61.98-61.98c0,0,0,0,0,0H11.6Z"/>
  </g>
  <g>
    <path class="st0" d="M132.18,74.85c0-32.36-26.24-58.6-58.6-58.6S14.98,42.49,14.98,74.85h117.2Z"/>
    <path class="st1" d="M14.98,74.85s0,0,0,0c0,32.36,26.24,58.6,58.6,58.6s58.6-26.24,58.6-58.6c0,0,0,0,0,0H14.98Z"/>
  </g>
  <g>
    <g>
      <path class="st1" d="M57.29,38.72c-1.05,2.49-2.07,4.91-3.09,7.33,5.44-2.94,11.19-4.08,17.35-3.33-.14.32-.28.63-.41.93-.32.73-.66,1.45-.96,2.19-.09.21-.19.26-.42.25-1.5-.12-2.99-.08-4.48.09q-.41.05-.25.41c.61,1.38,1.24,2.76,1.83,4.14.53,1.24-.17,2.55-1.48,2.81-.97.19-1.89-.31-2.36-1.32-.33-.7-.61-1.42-.91-2.13-.38-.91-.77-1.81-1.14-2.72-.09-.22-.18-.26-.41-.18-3.43,1.11-6.46,2.9-9.1,5.35-.09.08-.16.17-.24.26-.7.82-1.82,1.02-2.7.47-.88-.55-1.19-1.6-.75-2.59,1.81-4.09,3.63-8.18,5.44-12.26.46-1.04.94-2.07,1.38-3.11.74-1.74,2.31-2.05,3.85-1.59.7.21,1.18.74,1.47,1.39,1,2.21,1.97,4.43,2.96,6.64.09.2.04.23-.15.26-1.16.21-2.3.49-3.42.86-.21.07-.26,0-.33-.17-.49-1.18-.99-2.35-1.49-3.53-.05-.12-.1-.23-.2-.44Z"/>
      <path class="st1" d="M44.82,43.62c0,2.55,0,5.11,0,7.66,0,1.1-.58,1.92-1.52,2.2-1.26.37-2.53-.42-2.74-1.72-.03-.16-.04-.33-.04-.49,0-5.09,0-10.19,0-15.28,0-1.22.68-2.07,1.79-2.28,1.21-.23,2.42.67,2.49,1.9.05,1,.02,2,.03,3,0,1.67,0,3.34,0,5.01Z"/>
      <path class="st1" d="M88.22,50.63c-2.29-5.12-4.56-10.25-6.84-15.37-.51-1.16-1.4-1.77-2.69-1.72-1.33-.04-2.2.61-2.72,1.79-.91,2.06-1.82,4.11-2.73,6.16-1.37,3.08-2.74,6.16-4.1,9.25-.35.78-.22,1.5.32,2.13.55.64,1.27.82,2.08.63.77-.18,1.22-.72,1.51-1.41.66-1.55,1.32-3.1,1.97-4.66.11-.25.19-.33.48-.23,2.34.77,4.51,1.85,6.52,3.27.97.69,1.93,1.4,2.73,2.29.74.83,1.83,1.06,2.73.52.7-.42,1.29-1.46.76-2.65ZM81.53,46.01c-1.5-.84-3.06-1.53-4.69-2.06-.25-.08-.31-.15-.19-.41.64-1.48,1.26-2.97,1.89-4.45.04-.09.05-.2.19-.28,1.02,2.42,2.04,4.83,3.06,7.24-.14.08-.2,0-.26-.04Z"/>
      <path class="st1" d="M105.75,37.26c-1.23-2.24-3.3-3.18-5.73-3.36-2.28-.17-4.57-.07-6.86-.05-1.26.01-2.12.94-2.12,2.21,0,2.54,0,5.08,0,7.62,0,.41,0,.82,0,1.23,0,2.15,0,4.3,0,6.46,0,1.49,1.33,2.5,2.74,2.11.95-.26,1.55-1.08,1.56-2.17.01-1.15.01-2.31,0-3.46,0-.29.09-.35.36-.34.92.02,1.84,0,2.76,0,.97,0,1.93-.09,2.87-.32,4.51-1.1,6.66-5.89,4.43-9.94ZM101.6,42.53c-.6.78-1.45,1.12-2.4,1.15-1.2.05-2.41.01-3.61.03-.21,0-.25-.07-.25-.26,0-.92,0-1.84,0-2.75,0-.88,0-1.76,0-2.65,0-.25.04-.35.32-.34,1.24.04,2.48-.06,3.71.06,1.12.11,2.1.52,2.57,1.63.46,1.09.39,2.17-.34,3.13Z"/>
    </g>
    <g>
      <g>
        <path class="st1" d="M74.02,67.86c.24-.66.48-1.31.71-1.96.05-.14.09-.28.16-.41.09-.16.22-.26.41-.18.19.08.27.23.23.44,0,.05-.02.1-.04.14-.44,1.09-.86,2.19-1.32,3.27-.28.66-.7.85-1.34.71-.09-.02-.18-.05-.26-.1-.12-.08-.19-.19-.15-.35.04-.17.15-.25.31-.24.12,0,.23.05.35.06.38.02.6-.32.45-.68-.35-.82-.7-1.64-1.05-2.46-.03-.08-.07-.16-.1-.24-.09-.23-.04-.42.17-.53.23-.11.39,0,.48.22.27.66.52,1.32.78,1.98.04.11.05.24.19.34Z"/>
        <path class="st1" d="M108.42,65.82c.38-.5.82-.64,1.34-.53.49.11.83.55.85,1.14.02.67,0,1.34,0,2,0,.25-.12.41-.36.41-.26,0-.38-.17-.38-.43,0-.53,0-1.06,0-1.59,0-.36-.09-.69-.48-.82-.52-.16-.96.13-1,.71-.04.53-.02,1.06-.02,1.59,0,.28-.04.54-.38.54-.32,0-.36-.26-.36-.53,0-.8,0-1.61,0-2.41,0-.27,0-.55.32-.61.3-.05.39.2.47.52Z"/>
        <path class="st1" d="M99.61,68.9c-.48-.03-.87-.15-1.23-.39-.16-.11-.28-.25-.16-.46.11-.2.28-.2.46-.09.3.19.61.32.97.3.22-.01.44-.05.49-.33.05-.27-.15-.36-.35-.44-.23-.09-.47-.15-.7-.24-.56-.22-.78-.55-.72-1.07.05-.48.42-.84.93-.91.43-.06.84.04,1.23.25.18.1.29.24.19.45-.1.2-.26.22-.45.12-.23-.12-.48-.22-.74-.22-.21,0-.42.04-.48.29-.07.27.14.37.32.45.27.11.56.2.82.32.49.23.67.53.62,1-.05.47-.33.78-.81.9-.15.04-.3.05-.39.07Z"/>
        <path class="st1" d="M118.21,65.27c.36,0,.7.1,1.01.27.16.09.27.22.18.42-.09.2-.25.24-.44.14-.23-.12-.47-.22-.74-.23-.22,0-.44.04-.51.3-.07.27.15.36.34.44.29.12.6.22.88.36.37.17.59.45.57.89-.03.45-.24.77-.65.92-.66.25-1.27.07-1.84-.31-.14-.1-.21-.24-.11-.41.1-.18.25-.21.42-.11.32.2.65.34,1.03.32.21-.01.41-.06.45-.32.05-.28-.15-.37-.34-.44-.23-.09-.47-.15-.7-.24-.56-.21-.79-.55-.73-1.06.06-.51.45-.87,1-.92.06,0,.12,0,.18,0Z"/>
        <path class="st1" d="M53.12,65.27c.4,0,.7.09,1,.23.2.09.37.23.24.48-.11.23-.29.2-.49.1-.23-.12-.48-.21-.74-.21-.2,0-.39.05-.44.29-.06.25.11.36.3.43.29.12.6.22.89.35.47.22.63.51.59.98-.04.43-.31.76-.74.88-.62.18-1.19.01-1.72-.33-.16-.1-.23-.25-.12-.44.11-.18.26-.2.43-.1.3.19.61.33.96.32.23,0,.47-.03.51-.33.04-.29-.18-.37-.38-.45-.23-.09-.47-.15-.7-.24-.5-.2-.74-.55-.7-.99.05-.49.38-.86.89-.96.1-.02.21-.02.24-.02Z"/>
        <path class="st1" d="M56.3,65.27c.36,0,.68.1.98.25.17.08.31.21.22.44-.1.23-.26.24-.47.14-.24-.12-.5-.23-.78-.22-.2,0-.39.07-.44.29-.06.25.13.35.3.43.29.13.6.22.89.35.43.2.62.5.59.91-.03.46-.29.82-.72.95-.63.19-1.21.03-1.75-.33-.16-.11-.22-.26-.12-.44.1-.18.26-.19.43-.09.29.18.59.32.93.31.23,0,.48-.01.54-.3.07-.31-.17-.4-.39-.48-.22-.08-.45-.15-.67-.23-.54-.21-.78-.56-.72-1.04.06-.51.43-.86.96-.93.08-.01.16,0,.22-.01Z"/>
        <path class="st1" d="M96.45,65.27c.34,0,.65.1.95.25.18.09.28.25.19.45-.09.2-.26.22-.45.12-.26-.13-.52-.24-.81-.22-.19.01-.38.07-.42.31-.04.24.13.33.29.4.29.12.6.22.89.35.37.17.62.44.6.91-.02.47-.27.82-.7.96-.64.2-1.23.04-1.78-.33-.15-.1-.2-.25-.11-.41.1-.18.25-.22.42-.11.32.2.65.34,1.03.32.21-.01.41-.06.46-.32.05-.27-.15-.37-.34-.44-.23-.09-.47-.15-.7-.24-.58-.22-.81-.58-.73-1.1.07-.49.49-.85,1.04-.88.06,0,.12,0,.18,0Z"/>
        <path class="st1" d="M42.73,68.89c-.76,0-1.4-.48-1.64-1.22-.24-.74,0-1.58.6-2.06.58-.46,1.44-.49,2.05-.06.2.14.38.32.23.57-.16.27-.39.19-.6.02-.37-.28-.76-.32-1.15-.06-.36.24-.53.74-.43,1.24.09.46.38.78.81.86.32.06.61-.04.86-.24.18-.14.36-.23.52,0,.18.24.02.41-.15.56-.3.26-.65.38-1.08.38Z"/>
        <path class="st1" d="M44.55,67.06c.03-.7.31-1.26.91-1.59.61-.33,1.22-.3,1.81.08.22.14.4.33.22.6-.16.25-.37.16-.58,0-.48-.34-1-.3-1.34.1-.37.43-.38,1.16-.02,1.6.34.42.89.48,1.37.15.04-.03.08-.06.11-.09.16-.13.33-.16.47.02.15.19.07.36-.09.51-.88.86-2.41.42-2.79-.81-.06-.19-.1-.38-.08-.59Z"/>
        <path class="st1" d="M33.34,65.33c.18,0,.35,0,.53,0,.18,0,.28.13.29.31,0,.18-.09.3-.27.34-.05.01-.09,0-.14.01-.63.04-.63.04-.79.69-.14.57-.3,1.14-.44,1.72-.04.15-.09.28-.21.37-.13.09-.27.1-.4.02-.15-.1-.16-.25-.12-.43.17-.67.34-1.34.51-2,.05-.19.14-.37-.15-.45-.11-.03-.15-.19-.13-.32.03-.14.11-.27.26-.26.27.03.32-.15.38-.36.23-.8.82-1.18,1.52-1.01.2.05.37.14.32.39-.04.24-.2.29-.42.26-.48-.06-.69.14-.74.72Z"/>
        <path class="st1" d="M89.32,67.31c0-.27,0-.54,0-.82,0-.25.06-.52-.3-.56-.11-.01-.14-.15-.14-.27,0-.14.08-.27.19-.27.28,0,.24-.18.25-.37.05-.82.55-1.22,1.32-1.05.19.04.35.13.33.36-.02.21-.17.31-.38.29-.21-.02-.4.01-.49.26-.14.36-.06.49.3.49.04,0,.07,0,.11,0,.23-.02.46.03.46.32,0,.29-.24.35-.46.32-.36-.06-.45.09-.44.46.03.62,0,1.24,0,1.86,0,.29-.07.54-.4.53-.31,0-.36-.26-.36-.53,0-.33,0-.67,0-1Z"/>
        <path class="st1" d="M70.12,67.06c0-.22,0-.45,0-.67,0-.21.04-.42-.26-.44-.14-.01-.21-.16-.2-.31,0-.14.09-.28.23-.29.22,0,.24-.14.23-.32,0-.06,0-.12,0-.19-.02-.29.08-.52.37-.51.3,0,.4.24.36.52-.05.39.08.53.45.48.24-.03.49.02.48.34-.01.31-.27.36-.5.32-.37-.06-.47.09-.44.46.03.41,0,.82,0,1.22,0,.41.1.51.49.5.21,0,.39.03.43.28.03.25-.14.33-.35.38-.84.21-1.31-.17-1.31-1.07,0-.23,0-.47,0-.71Z"/>
        <path class="st1" d="M116.27,66.41c0,.63,0,1.26,0,1.89,0,.37-.16.55-.47.55-.29,0-.45-.18-.45-.53,0-1.27,0-2.54,0-3.82,0-.37.17-.56.47-.55.29,0,.44.19.45.54,0,.64,0,1.28,0,1.93Z"/>
        <path class="st1" d="M67.28,66.42c0,.63,0,1.26,0,1.89,0,.33-.14.51-.45.53-.29.01-.47-.17-.47-.51,0-1.28,0-2.57,0-3.85,0-.32.14-.52.45-.54.3-.01.47.19.47.55,0,.64,0,1.28,0,1.93Z"/>
        <path class="st1" d="M83.22,65.96c.2-.26.32-.46.51-.58.17-.1.34-.17.53-.04.13.09.18.23.16.38-.03.22-.19.29-.37.34-.53.14-.78.53-.82,1.07-.03.39-.02.79-.02,1.18,0,.27-.05.52-.36.53-.33.01-.39-.25-.39-.53,0-.8,0-1.6,0-2.4,0-.28.01-.59.36-.61.34-.02.39.28.41.67Z"/>
        <path class="st1" d="M102.47,67.08c0,.43,0,.87,0,1.3,0,.29-.12.46-.39.46-.27,0-.4-.17-.4-.45,0-.88,0-1.76,0-2.64,0-.28.13-.47.39-.46.28,0,.41.19.4.5-.01.43,0,.87,0,1.3Z"/>
        <path class="st1" d="M58.46,67.02c0-.41,0-.82,0-1.22,0-.29.1-.5.39-.5.28,0,.41.2.41.49,0,.85,0,1.71,0,2.56,0,.29-.1.5-.4.5-.3,0-.41-.19-.4-.49,0-.45,0-.89,0-1.34Z"/>
        <path class="st1" d="M68.18,67.05c0-.42,0-.84,0-1.26,0-.29.11-.5.4-.5.28,0,.41.19.41.49,0,.86,0,1.72,0,2.59,0,.29-.12.49-.41.48-.29,0-.4-.21-.39-.5,0-.43,0-.86,0-1.29Z"/>
        <path class="st1" d="M65.35,67.07c0,.42,0,.84,0,1.26,0,.29-.09.5-.39.5-.29,0-.41-.18-.41-.48,0-.87,0-1.73,0-2.6,0-.28.12-.47.38-.47.28,0,.42.19.41.48,0,.43,0,.87,0,1.3Z"/>
        <path class="st1" d="M64.45,64.4c.02-.31.21-.41.47-.41.26,0,.48.1.48.39,0,.29-.22.4-.47.4-.25,0-.46-.1-.48-.39Z"/>
        <path class="st1" d="M102.04,63.98c.28.02.5.1.49.4,0,.3-.23.4-.48.4-.25,0-.47-.09-.47-.4,0-.31.22-.37.46-.4Z"/>
        <path class="st1" d="M58.8,64.79c-.25-.04-.47-.12-.46-.42.01-.3.23-.38.49-.38.26,0,.47.12.46.41-.01.29-.24.37-.49.39Z"/>
        <path class="st1" d="M68.63,64.79c-.3-.02-.51-.13-.51-.42,0-.29.23-.39.49-.38.26,0,.47.1.46.41,0,.31-.24.36-.44.39Z"/>
        <path class="st1" d="M63.26,65.79c-.58-.7-1.3-.7-2.29.04,0-.51,0-.97,0-1.42,0-.28-.11-.47-.39-.46-.26.01-.35.2-.34.46,0,.57,0,1.14,0,1.71,0,.77,0,1.53,0,2.3,0,.23.09.39.31.42.22.03.36-.09.41-.31.01-.05-.02-.13.06-.15.89.68,1.64.67,2.22-.02.57-.68.58-1.89.01-2.57ZM61.94,68.22c-.57,0-.98-.5-.98-1.16,0-.66.43-1.14,1-1.13.56,0,.96.49.96,1.14,0,.68-.41,1.16-.98,1.16Z"/>
        <path class="st1" d="M40.44,68.27c-.54-1.26-1.08-2.52-1.62-3.78-.1-.23-.25-.39-.51-.38-.24,0-.39.15-.48.37-.54,1.26-1.08,2.52-1.62,3.78-.1.23-.1.45.15.55.24.1.45-.02.49-.27.16-.8.65-.98,1.33-.85.03,0,.07,0,.11,0,.73-.14,1.31-.03,1.49.88.05.25.28.34.51.23.21-.11.24-.31.14-.54ZM38.92,66.99c-.4,0-.8,0-1.2,0-.19,0-.19-.08-.12-.23.23-.54.45-1.08.72-1.71.27.65.5,1.21.74,1.77.06.15-.02.16-.13.16Z"/>
        <path class="st1" d="M80.42,64.22c-.56-.09-1.13-.04-1.69-.04-.3,0-.43.2-.43.51,0,.61,0,1.21,0,1.82,0,.61,0,1.21,0,1.82,0,.01,0,.02,0,.04,0,.26.09.48.38.48.28,0,.38-.2.38-.47,0-.26.01-.52,0-.78-.01-.21.05-.28.25-.27.36.01.73.02,1.09-.04.79-.13,1.33-.76,1.33-1.53,0-.82-.5-1.39-1.31-1.53ZM80.14,66.6c-.08.01-.16,0-.25,0q-.83,0-.83-.88t.81-.83c.08,0,.17,0,.25,0,.52.04.82.34.84.82.01.49-.29.82-.82.89Z"/>
        <path class="st1" d="M86.59,65.25c-1-.01-1.79.79-1.8,1.82,0,1.01.77,1.82,1.75,1.82,1.01,0,1.79-.78,1.8-1.82.01-1.01-.76-1.81-1.75-1.82ZM86.56,68.22c-.59-.01-1.03-.52-1.02-1.18.01-.66.43-1.12,1.02-1.11.6,0,1.04.5,1.04,1.15,0,.66-.45,1.15-1.05,1.14Z"/>
        <path class="st1" d="M105.08,65.25c-1.01-.01-1.81.81-1.81,1.85,0,.99.78,1.79,1.75,1.79,1.02,0,1.79-.77,1.8-1.81,0-1.03-.75-1.82-1.74-1.83ZM105.06,68.22c-.59,0-1.04-.5-1.04-1.15,0-.68.43-1.14,1.04-1.14.59,0,1.03.5,1.02,1.17,0,.65-.44,1.12-1.02,1.12Z"/>
        <path class="st1" d="M92.3,67.34c.29.02.59,0,.88,0,.28,0,.56,0,.85,0,.38,0,.51-.15.47-.55-.07-.78-.59-1.41-1.28-1.52-.78-.13-1.45.26-1.77,1.02-.34.81-.11,1.77.54,2.26.61.47,1.58.44,2.14-.06.15-.14.24-.29.12-.48-.13-.19-.29-.16-.46-.04-.09.06-.18.12-.27.17-.57.27-1.18.04-1.4-.51-.08-.21-.09-.32.18-.31ZM92.1,66.53c.14-.41.46-.66.84-.66.36,0,.67.28.79.67.07.22.02.32-.22.3-.21-.02-.42,0-.63,0-.2,0-.4-.01-.6,0-.26.02-.27-.1-.19-.31Z"/>
        <path class="st1" d="M49.09,67.34c.29.02.59,0,.88,0,.31,0,.61,0,.92,0,.26,0,.38-.14.39-.41.03-.79-.58-1.55-1.33-1.66-.74-.1-1.39.27-1.7.97-.33.73-.17,1.68.36,2.19.54.52,1.43.62,2.07.23.22-.13.53-.28.35-.61-.19-.35-.42-.07-.62.05-.58.35-1.26.15-1.5-.43-.09-.21-.11-.35.19-.33ZM48.89,66.49c.15-.39.48-.64.83-.62.39.02.68.29.8.71.07.22-.01.26-.19.25-.22,0-.45,0-.67,0-.19,0-.38-.02-.56,0-.3.03-.3-.11-.21-.34Z"/>
        <path class="st1" d="M114.35,66.58c-.03-.69-.39-1.12-1.03-1.26-.48-.1-.94-.03-1.39.13-.2.07-.35.18-.28.43.07.26.27.26.46.2.26-.08.53-.15.8-.12.33.03.62.16.71.55.05.22.06.35-.24.27-.44-.12-.88-.13-1.32.04-.48.19-.71.52-.7,1.03,0,.47.27.84.72.98.47.15.91.09,1.31-.22.12-.09.21-.21.29.05.06.18.24.22.42.17.17-.05.25-.17.26-.35,0-.32,0-.64,0-.96h0c0-.31.01-.62,0-.93ZM113.6,67.84c-.2.47-.95.67-1.33.35-.17-.14-.21-.32-.18-.53.04-.25.21-.38.42-.44.13-.04.28-.04.38-.05.15.01.27.02.38.03.38.06.48.25.32.63Z"/>
        <path class="st1" d="M29.6,65.25c-1.05,0-1.95.95-1.94,2.06,0,.94.63,1.58,1.55,1.58,1.04,0,1.96-.97,1.96-2.06,0-.93-.65-1.59-1.56-1.58ZM29.24,68.23c-.52,0-.87-.38-.86-.95,0-.71.55-1.34,1.16-1.34.54,0,.87.35.87.93,0,.73-.55,1.36-1.18,1.37Z"/>
      </g>
      <g>
        <path class="st1" d="M112.61,58.34c.33-.37.67-.59,1.13-.57.6.02,1.06.35,1.16.95.12.76.04,1.53.04,2.3,0,.22-.18.36-.4.35-.25-.02-.37-.18-.37-.43,0-.57.01-1.14-.01-1.71-.02-.55-.39-.82-.93-.73-.38.07-.62.35-.63.8-.01.52-.01,1.04,0,1.56,0,.29-.09.51-.4.51-.29,0-.39-.22-.39-.49,0-.84,0-1.68,0-2.52,0-.24.04-.49.34-.53.32-.04.42.19.48.52Z"/>
        <path class="st1" d="M34.98,58.36c.33-.37.65-.58,1.08-.58.68,0,1.17.41,1.23,1.08.07.68.03,1.36.02,2.04,0,.26-.1.49-.4.47-.31-.01-.39-.24-.39-.52,0-.49,0-.99,0-1.48,0-.59-.27-.88-.77-.87-.49,0-.78.32-.8.87,0,.47,0,.94,0,1.41,0,.29-.03.56-.39.6-.26.03-.4-.19-.4-.59,0-.79,0-1.58,0-2.38,0-.26,0-.52.32-.58.34-.06.45.18.49.53Z"/>
        <path class="st1" d="M47.78,59.6c0-.43,0-.87,0-1.3,0-.23.06-.43.32-.47.23-.04.38.07.45.29.07.23.17.11.25.02.21-.21.46-.33.76-.36.74-.07,1.3.36,1.35,1.11.05.69.02,1.38.02,2.08,0,.25-.14.41-.39.4-.24,0-.38-.16-.39-.41,0-.56,0-1.11,0-1.67-.02-.58-.36-.87-.92-.79-.39.06-.63.34-.64.78-.01.46,0,.92,0,1.37,0,.1,0,.2,0,.3-.03.25-.15.43-.42.41-.24-.02-.36-.19-.37-.43,0-.45,0-.89,0-1.34Z"/>
        <path class="st1" d="M65.71,58.34c.38-.45.82-.66,1.37-.54.52.11.89.49.92,1.03.04.72.02,1.43.03,2.15,0,.24-.14.38-.36.39-.24,0-.4-.13-.4-.39,0-.56,0-1.11-.01-1.67-.02-.53-.27-.8-.71-.83-.48-.02-.82.25-.85.73-.03.53-.02,1.06-.02,1.59,0,.29-.06.55-.4.55-.34,0-.4-.26-.39-.55,0-.79,0-1.58,0-2.37,0-.26-.02-.55.33-.61.34-.06.43.2.49.51Z"/>
        <path class="st1" d="M83.24,61.41c-.42,0-.85-.13-1.25-.38-.18-.11-.28-.26-.16-.46.12-.19.3-.18.49-.07.31.19.65.31,1.02.3.24,0,.46-.08.51-.34.05-.27-.18-.36-.37-.43-.3-.12-.61-.2-.91-.32-.38-.15-.61-.43-.61-.85,0-.44.21-.76.62-.93.61-.27,1.19-.12,1.74.17.16.08.22.25.14.41-.09.19-.28.2-.45.13-.26-.12-.52-.23-.82-.22-.21,0-.44.02-.5.28-.06.28.16.36.35.44.26.1.54.18.8.29.57.24.78.56.7,1.07-.07.49-.44.82-.99.9-.09.01-.17.01-.31.02Z"/>
        <path class="st1" d="M86.59,61.41c-.47,0-.86-.12-1.23-.33-.19-.11-.39-.23-.24-.49.14-.25.34-.18.54-.06.3.18.63.29.98.27.22-.01.43-.08.48-.33.05-.27-.16-.37-.35-.45-.31-.12-.63-.2-.94-.33-.37-.16-.6-.44-.58-.86.01-.42.22-.73.6-.9.61-.27,1.19-.13,1.75.15.17.08.22.24.15.41-.09.2-.26.22-.44.15-.25-.11-.5-.22-.78-.23-.22,0-.47,0-.55.27-.08.29.16.38.37.47.25.1.52.17.77.27.57.24.78.55.72,1.06-.06.49-.42.83-.98.91-.1.01-.2.01-.26.02Z"/>
        <path class="st1" d="M94.73,61.42c-.8,0-1.48-.48-1.73-1.22-.25-.76,0-1.59.63-2.06.61-.46,1.51-.49,2.13-.07.21.14.44.31.25.6-.18.27-.41.16-.64,0-.47-.33-1.02-.28-1.38.11-.38.41-.41,1.13-.06,1.57.33.41.89.51,1.37.25.08-.04.15-.09.22-.14.17-.13.35-.16.49.02.16.2.07.36-.1.51-.31.28-.72.43-1.19.43Z"/>
        <path class="st1" d="M56,59.61c0-.2,0-.4,0-.59,0-.24.08-.52-.31-.57-.13-.02-.16-.17-.15-.3,0-.14.1-.26.22-.27.29,0,.26-.19.25-.38,0-.29-.02-.6.38-.64.28-.03.41.17.39.65-.01.28.07.36.35.34.27-.02.64-.1.63.34-.01.4-.37.33-.63.31-.27-.02-.37.05-.35.34.03.44,0,.89,0,1.33,0,.41.12.53.54.52.23,0,.41.05.43.29.02.23-.15.31-.35.36-.85.24-1.39-.16-1.4-1.04,0-.23,0-.47,0-.7Z"/>
        <path class="st1" d="M38.49,59.6c0-.21,0-.42,0-.63,0-.22.08-.48-.29-.51-.12,0-.19-.16-.18-.29,0-.15.09-.29.23-.3.25-.02.26-.16.24-.35,0-.09,0-.17,0-.26.02-.24.14-.41.39-.41.25,0,.38.16.39.4,0,.04,0,.08,0,.11-.09.43.11.53.5.48.24-.04.47.04.48.33,0,.29-.23.34-.47.34-.5,0-.5,0-.5.51,0,.4,0,.79,0,1.19,0,.35.15.51.5.49.24-.02.44.03.47.29.02.24-.18.32-.39.37-.84.21-1.36-.19-1.36-1.06,0-.23,0-.47,0-.71Z"/>
        <path class="st1" d="M102.9,59.6c0-.22,0-.44,0-.67.01-.23.03-.43-.29-.47-.13-.01-.19-.16-.19-.29,0-.14.08-.3.22-.3.3,0,.26-.19.26-.37,0-.07,0-.15,0-.22.02-.26.13-.43.41-.42.27.01.35.19.36.42,0,.01,0,.02,0,.04.02.51.02.52.53.52.24,0,.45.06.46.32.01.28-.2.36-.46.35-.1,0-.2,0-.3,0-.18-.02-.24.05-.23.23.01.49,0,.99,0,1.48,0,.34.17.51.51.48.22-.02.41.02.45.26.05.28-.17.35-.38.4-.83.2-1.34-.19-1.36-1.03,0-.25,0-.49,0-.74Z"/>
        <path class="st1" d="M73.98,58.92c0,.64,0,1.29,0,1.93,0,.34-.17.53-.48.53-.3,0-.49-.18-.49-.52,0-1.29,0-2.57,0-3.86,0-.35.18-.53.48-.53.32,0,.48.19.48.56,0,.63,0,1.26,0,1.89Z"/>
        <path class="st1" d="M33.16,59.06c0,.59,0,1.19,0,1.78,0,.34-.18.53-.48.53-.31,0-.48-.18-.48-.52,0-1.22,0-2.45,0-3.67,0-.34.2-.53.49-.52.3,0,.46.2.47.55,0,.62,0,1.24,0,1.85Z"/>
        <path class="st1" d="M45.81,58.54c.2-.29.33-.5.55-.63.18-.1.37-.15.56-.04.15.08.17.23.15.39-.03.23-.21.28-.39.33-.55.16-.83.53-.87,1.15-.02.38-.01.77-.01,1.15,0,.27-.11.48-.4.48-.29,0-.39-.21-.39-.48,0-.8,0-1.61,0-2.41,0-.29-.04-.62.36-.65.39-.02.42.29.42.71Z"/>
        <path class="st1" d="M59.47,59.6c0,.42,0,.84,0,1.26,0,.3-.11.5-.41.5-.3,0-.43-.18-.43-.49,0-.87,0-1.73,0-2.6,0-.28.13-.46.41-.47.28,0,.43.17.43.45,0,.45,0,.89,0,1.34Z"/>
        <path class="st1" d="M96.98,59.56c0-.43,0-.87,0-1.3,0-.27.13-.43.39-.44.28-.01.44.15.44.43,0,.89,0,1.78,0,2.67,0,.28-.15.46-.43.45-.27,0-.41-.18-.4-.47.01-.44,0-.89,0-1.33Z"/>
        <path class="st1" d="M106.37,59.62c0,.43,0,.86,0,1.3,0,.27-.13.43-.39.45-.28.02-.44-.15-.44-.43,0-.9,0-1.8,0-2.71,0-.26.16-.42.43-.41.26,0,.4.16.4.43,0,.46,0,.91,0,1.37Z"/>
        <path class="st1" d="M59.04,57.32c-.26-.04-.49-.13-.47-.42.01-.29.22-.39.49-.38.26,0,.47.1.46.41,0,.31-.24.36-.47.4Z"/>
        <path class="st1" d="M105.93,57.32c-.24-.05-.46-.13-.45-.43.02-.3.23-.38.49-.37.27,0,.47.12.45.41-.01.3-.25.36-.49.39Z"/>
        <path class="st1" d="M97.39,57.32c-.24-.04-.48-.11-.48-.41,0-.3.21-.39.47-.39.26,0,.47.1.48.39,0,.31-.23.37-.47.41Z"/>
        <path class="st1" d="M81.18,60.78c-.57-1.27-1.14-2.54-1.72-3.81-.09-.21-.25-.34-.51-.33-.23-.01-.4.12-.5.34-.57,1.27-1.14,2.54-1.71,3.81-.1.22-.11.42.14.53.26.12.48,0,.53-.23.17-.85.73-.99,1.46-.87.1.02.2.02.3,0,.7-.14,1.16.09,1.3.82,0,.02.02.05.03.07.12.2.27.33.51.23.27-.11.28-.32.17-.55ZM79.6,59.51c-.42,0-.84,0-1.26,0-.19,0-.21-.06-.14-.22.24-.54.47-1.08.75-1.72.28.64.52,1.2.77,1.76.06.14.01.18-.12.18Z"/>
        <path class="st1" d="M90.38,57.77c-1.04,0-1.88.83-1.87,1.84.01,1.01.83,1.8,1.87,1.8,1.05,0,1.88-.82,1.87-1.84,0-1.01-.83-1.8-1.87-1.8ZM90.38,60.74c-.63,0-1.09-.49-1.08-1.16,0-.65.45-1.13,1.07-1.14.63,0,1.11.51,1.1,1.19,0,.66-.45,1.11-1.08,1.11Z"/>
        <path class="st1" d="M62.18,57.77c-1.06,0-1.87.8-1.87,1.84,0,1.02.81,1.81,1.85,1.81,1.05,0,1.88-.82,1.88-1.83,0-1.01-.82-1.81-1.86-1.81ZM62.19,60.74c-.63,0-1.1-.48-1.1-1.14,0-.66.43-1.14,1.05-1.15.62-.02,1.13.5,1.13,1.17,0,.65-.45,1.12-1.08,1.12Z"/>
        <path class="st1" d="M109.1,57.77c-1.05,0-1.88.79-1.89,1.82,0,1.01.8,1.82,1.84,1.82,1.06,0,1.89-.79,1.89-1.82,0-1.02-.8-1.82-1.84-1.82ZM109.11,60.74c-.63,0-1.11-.47-1.12-1.13-.01-.66.46-1.17,1.08-1.17.62,0,1.09.5,1.1,1.16,0,.66-.43,1.13-1.05,1.14Z"/>
        <path class="st1" d="M101.73,58.93c-.07-.58-.44-.98-1.01-1.08-.51-.1-1.01-.05-1.5.12-.21.07-.38.18-.31.42.07.26.29.27.51.2.34-.11.68-.14,1.03-.07.31.06.5.25.55.57.03.19,0,.28-.23.22-.49-.13-.98-.14-1.46.03-.46.17-.71.55-.7,1.03.01.46.27.82.73.97.61.2,1.15.07,1.65-.4.03.3.18.47.46.44.22-.03.32-.18.32-.39,0-.68.05-1.36-.03-2.04ZM100.93,60.44c-.25.41-.96.56-1.35.28-.31-.22-.28-.69.06-.9.2-.12.42-.13.64-.13.11,0,.22,0,.33.03.44.08.55.33.32.72Z"/>
        <path class="st1" d="M41.83,59.86c.31.01.62,0,.93,0h0c.33,0,.67,0,1,0,.28,0,.39-.16.4-.43,0-.71-.5-1.39-1.17-1.59-.81-.23-1.62.12-1.99.87-.41.83-.21,1.83.48,2.34.67.5,1.73.47,2.31-.05.15-.13.22-.29.1-.46-.13-.19-.31-.16-.49-.04-.09.06-.19.12-.29.17-.62.28-1.27.04-1.49-.53-.08-.21-.04-.29.2-.28ZM41.68,58.93c.19-.38.52-.56.94-.51.36.04.63.3.75.68.06.2,0,.27-.2.26-.22-.01-.45,0-.67,0-.19,0-.37,0-.56,0-.39,0-.43-.07-.25-.42Z"/>
        <path class="st1" d="M54.84,59.02c-.04-.63-.43-1.05-1.01-1.16-.52-.1-1.03-.06-1.53.12-.22.08-.36.19-.28.43.08.24.27.25.48.18.33-.11.68-.14,1.02-.08.31.06.51.24.57.55.04.19.04.32-.23.24-.38-.11-.78-.12-1.18-.05-.64.12-1.01.54-.98,1.14.03.56.45.95,1.08,1.01.48.05.89-.12,1.28-.45.07.27.19.45.46.41.21-.03.33-.17.33-.39,0-.65.02-1.31-.02-1.96ZM54.12,60.07c0,.33-.17.58-.49.7-.35.13-.71.16-1.01-.1-.29-.25-.19-.73.18-.88.39-.17.8-.1,1.2,0,.14.04.14.15.13.29Z"/>
        <path class="st1" d="M71.94,58.95c-.04-.57-.44-.98-1-1.09-.51-.1-1.01-.06-1.5.11-.21.07-.41.18-.33.44.08.26.3.25.52.18.32-.1.65-.13.99-.07.3.05.49.23.57.51.06.21.06.36-.26.27-.46-.12-.93-.13-1.39.03-.47.17-.72.51-.73,1,0,.49.25.85.72,1,.6.2,1.14.07,1.64-.4.05.31.18.47.45.44.21-.03.33-.16.33-.38,0-.68.01-1.36-.03-2.04ZM71.23,60.11c-.02.36-.22.57-.54.68-.34.11-.69.14-.98-.14-.25-.24-.16-.69.16-.85.4-.19.82-.12,1.23-.01.17.05.11.2.12.31Z"/>
      </g>
    </g>
  </g>
  <g>
    <g>
      <path class="st2" d="M32.29,88.43c-.52-.34-1.11-.5-1.79-.5s-1.26.17-1.78.5c-.52.34-.93.81-1.22,1.43-.29.61-.44,1.34-.44,2.17s.15,1.55.44,2.17c.29.61.7,1.09,1.22,1.43s1.11.5,1.79.5,1.27-.17,1.79-.5c.52-.34.93-.81,1.22-1.43.3-.61.44-1.34.44-2.17s-.15-1.55-.44-2.17-.7-1.09-1.22-1.43ZM32.89,93.86c-.24.51-.57.9-.98,1.17-.41.27-.88.4-1.41.4s-.99-.14-1.41-.41c-.41-.27-.74-.66-.98-1.17-.24-.51-.36-1.12-.36-1.83s.12-1.33.36-1.84c.24-.51.57-.9.98-1.17.41-.27.88-.41,1.4-.41s.99.13,1.41.41c.41.27.74.66.98,1.17.24.51.36,1.12.36,1.84,0,.71-.12,1.33-.35,1.84Z"/>
      <path class="st2" d="M39.71,92.49c.38-.2.67-.48.86-.83.19-.36.29-.77.29-1.23s-.1-.88-.29-1.24c-.19-.36-.48-.64-.86-.85-.38-.2-.85-.31-1.42-.31h-2.58v7.98h.73v-3.23h1.86c.11,0,.2-.02.3-.03l1.76,3.25h.84l-1.85-3.4c.12-.04.26-.07.37-.13ZM38.28,92.12h-1.84v-3.43h1.83c.42,0,.77.07,1.05.21s.48.34.62.61c.14.26.21.57.21.91s-.07.65-.2.9-.34.45-.62.59c-.28.14-.62.21-1.04.21Z"/>
      <path class="st2" d="M45.93,92.81h2.32c0,.53-.1.98-.31,1.37-.21.41-.51.72-.88.94s-.81.33-1.3.33c-.54,0-1.01-.14-1.43-.41s-.74-.66-.98-1.17c-.24-.51-.36-1.12-.36-1.83s.12-1.33.36-1.84c.24-.51.56-.9.97-1.17.41-.27.88-.41,1.39-.41.33,0,.63.05.9.15.27.1.51.24.71.41.21.18.38.38.52.61s.25.48.32.75h.75c-.06-.35-.18-.69-.36-1-.18-.31-.41-.59-.68-.83-.28-.24-.6-.43-.96-.57s-.76-.21-1.2-.21c-.51,0-.97.1-1.39.29-.42.19-.78.47-1.09.82-.31.36-.54.79-.71,1.29-.17.5-.25,1.07-.25,1.69,0,.83.14,1.55.43,2.17.29.61.7,1.09,1.22,1.43.52.34,1.13.5,1.83.5.62,0,1.18-.13,1.66-.41.48-.27.86-.65,1.13-1.15.28-.5.41-1.08.41-1.76v-.65h-3.03v.65Z"/>
      <path class="st2" d="M52.67,88.04l-2.9,7.98h.76l.85-2.4h3.35l.85,2.4h.76l-2.9-7.98h-.78ZM51.62,92.96l1.41-3.97h.05l1.41,3.97h-2.88Z"/>
      <polygon class="st2" points="63.22 94.73 63.16 94.73 58.43 88.04 57.72 88.04 57.72 96.02 58.45 96.02 58.45 89.33 58.51 89.33 63.23 96.02 63.94 96.02 63.94 88.04 63.22 88.04 63.22 94.73"/>
      <rect class="st2" x="66.05" y="88.04" width=".73" height="7.98"/>
      <polygon class="st2" points="73.89 88.59 73.89 88.04 68.56 88.04 68.56 88.69 73.02 88.69 68.59 95.47 68.59 96.02 73.92 96.02 73.92 95.36 69.45 95.36 73.89 88.59"/>
      <path class="st2" d="M77.84,88.04l-2.9,7.98h.76l.85-2.4h3.35l.85,2.4h.76l-2.9-7.98h-.78ZM76.79,92.96l1.41-3.97h.05l1.41,3.97h-2.88Z"/>
      <polygon class="st2" points="81.47 88.69 84 88.69 84 96.02 84.73 96.02 84.73 88.69 87.25 88.69 87.25 88.04 81.47 88.04 81.47 88.69"/>
      <rect class="st2" x="88.89" y="88.04" width=".73" height="7.98"/>
      <path class="st2" d="M96.61,88.43c-.52-.34-1.11-.5-1.79-.5s-1.26.17-1.78.5c-.52.34-.93.81-1.22,1.43-.29.61-.44,1.34-.44,2.17s.15,1.55.44,2.17c.3.61.7,1.09,1.22,1.43s1.11.5,1.79.5,1.27-.17,1.79-.5.93-.81,1.22-1.43c.3-.61.44-1.34.44-2.17s-.15-1.55-.44-2.17c-.3-.61-.7-1.09-1.22-1.43ZM97.22,93.86c-.24.51-.57.9-.98,1.17-.41.27-.88.4-1.41.4s-.99-.14-1.41-.41c-.41-.27-.74-.66-.98-1.17-.24-.51-.36-1.12-.36-1.83s.12-1.33.36-1.84c.24-.51.57-.9.98-1.17.41-.27.88-.41,1.4-.41s.99.13,1.41.41c.41.27.74.66.98,1.17.24.51.36,1.12.36,1.84,0,.71-.12,1.33-.35,1.84Z"/>
      <polygon class="st2" points="105.54 94.73 105.48 94.73 100.75 88.04 100.04 88.04 100.04 96.02 100.77 96.02 100.77 89.33 100.83 89.33 105.55 96.02 106.25 96.02 106.25 88.04 105.54 88.04 105.54 94.73"/>
      <path class="st2" d="M110.52,88.04l-2.9,7.98h.76l.85-2.4h3.35l.85,2.4h.76l-2.9-7.98h-.78ZM109.47,92.96l1.41-3.97h.05l1.41,3.97h-2.88Z"/>
      <polygon class="st2" points="116.3 88.04 115.57 88.04 115.57 96.02 120.11 96.02 120.11 95.36 116.3 95.36 116.3 88.04"/>
    </g>
    <g>
      <polygon class="st2" points="49.83 109.99 49.74 109.99 46.05 101.14 44.98 101.14 44.98 111.3 45.85 111.3 45.85 103.1 45.93 103.1 49.36 111.3 50.2 111.3 53.63 103.1 53.71 103.1 53.71 111.3 54.58 111.3 54.58 101.14 53.51 101.14 49.83 109.99"/>
      <polygon class="st2" points="58.21 106.63 62.86 106.63 62.86 105.8 58.21 105.8 58.21 101.98 63.17 101.98 63.17 101.14 57.28 101.14 57.28 111.3 63.27 111.3 63.27 110.47 58.21 110.47 58.21 106.63"/>
      <polygon class="st2" points="70.41 109.99 70.33 109.99 66.64 101.14 65.57 101.14 65.57 111.3 66.44 111.3 66.44 103.1 66.52 103.1 69.95 111.3 70.79 111.3 74.22 103.1 74.3 103.1 74.3 111.3 75.17 111.3 75.17 101.14 74.1 101.14 70.41 109.99"/>
      <path class="st2" d="M83.62,106.44c-.31-.21-.62-.32-.95-.34v-.08c.3-.08.57-.22.82-.4.24-.18.44-.43.58-.73.14-.3.21-.66.21-1.09,0-.51-.11-.96-.33-1.36-.22-.4-.55-.72-.99-.95-.44-.23-.99-.35-1.65-.35h-3.43v10.16h3.62c.73,0,1.33-.11,1.8-.34.47-.23.82-.55,1.05-.95.23-.4.34-.86.34-1.37s-.1-.96-.3-1.33c-.2-.37-.45-.66-.76-.87ZM78.8,101.98h2.5c.69,0,1.22.17,1.57.51.35.34.53.78.53,1.32,0,.37-.08.71-.25,1-.17.29-.4.52-.7.68-.3.17-.65.25-1.05.25h-2.58v-3.75ZM83.22,109.95c-.38.35-.95.52-1.74.52h-2.69v-3.91h2.73c.46,0,.85.09,1.19.28.34.18.6.44.79.75.19.32.28.67.28,1.05,0,.53-.19.96-.56,1.31Z"/>
      <polygon class="st2" points="87.84 106.63 92.49 106.63 92.49 105.8 87.84 105.8 87.84 101.98 92.8 101.98 92.8 101.14 86.91 101.14 86.91 111.3 92.9 111.3 92.9 110.47 87.84 110.47 87.84 106.63"/>
      <path class="st2" d="M102.18,111.3l-2.36-4.32c.16-.05.33-.09.47-.17.48-.25.85-.61,1.09-1.06.25-.45.37-.98.37-1.57s-.12-1.12-.37-1.57-.61-.82-1.1-1.08-1.09-.39-1.81-.39h-3.28v10.16h.93v-4.11h2.37c.14,0,.25-.03.38-.04l2.24,4.14h1.07ZM98.47,106.35h-2.34v-4.37h2.33c.54,0,.98.09,1.33.27s.62.44.79.77c.17.33.26.72.26,1.16s-.09.83-.26,1.15-.44.57-.79.75c-.35.18-.79.26-1.32.26Z"/>
    </g>
  </g>
</svg>