<?xml version="1.0" encoding="UTF-8"?>
<svg id="Layer_1" xmlns="http://www.w3.org/2000/svg" version="1.1" viewBox="0 0 58.41 56.7">
  <!-- Generator: Adobe Illustrator 29.0.1, SVG Export Plug-In . SVG Version: 2.1.0 Build 192)  -->
  <defs>
    <style>
      .st0 {
        fill: #46cb6b;
      }

      .st1 {
        fill: #f49588;
      }

      .st2 {
        fill: #312e4b;
      }

      .st3 {
        fill: #c5c5f6;
      }

      .st4 {
        fill: #65b8fe;
      }

      .st5 {
        fill: #5b5e8a;
      }

      .st6 {
        fill: #3e7ffe;
      }

      .st7 {
        fill: #e73d62;
      }

      .st8 {
        fill: #e0e0fd;
      }

      .st9 {
        fill: #5b5e8b;
      }

      .st10 {
        fill: #cd2955;
      }

      .st11 {
        fill: #eaeafc;
      }

      .st12 {
        fill: #179b5f;
      }

      .st13 {
        fill: #b4b4e9;
      }

      .st14 {
        fill: #feae92;
      }

      .st15 {
        fill: #dddcfe;
      }
    </style>
  </defs>
  <path class="st15" d="M47.88,10.53c.38,4.64.35,9.34,0,13.98.07.28.08.56.04.86.09.03.16.07.16.11.05.46-.02.92-.09,1.38l-.08.51c-1.85,3.86-3.61,7.73-5.3,11.62l-.33.29c.11.38.07.83-.12,1.33,0,.44-.1.78-.33,1.02l-.08.22h-18c-.69.06-.69.83,0,.9h18.05l.14.22c.33,0,.42.55.11.67.35.08.43.85.11,1.01l-.08.22h-18.22c-.64.02-.94.73-.21.9h18.65l.3.21.12-.23c.64-.19,1.22-.52,1.76-.99l.25.1.13-.35c.98-.62,1.96-1.28,2.65-2.22l.35-.11.2.21c-.03,2.11,0,4.23.12,6.36.05,2.58-.7,6.3-4.01,5.96-.15.1-.41.09-.56,0-11.84.16-23.64.17-35.4.05l-.33.06h-.34c-1.8,0-3.69-2.12-3.69-3.85-.04-12.73-.06-25.47.06-38.21l.16-2.25c14.6-.22,29.19-.22,43.79,0l.02.02Z"/>
  <path class="st3" d="M4.09,10.53c-.09,13.48.06,26.96,0,40.44.25,1.98,1.61,3.3,3.47,3.86h-2.46c-1.81-.11-3.5-1.74-3.51-3.58-.04-13.54-.08-27.16.04-40.73.01-.09.04-.22.1-.22.28-.03,2.18-.03,2.29.07.04.04.06.09.07.15h0Z"/>
  <path class="st8" d="M43.62,54.72c.1.03.1.07,0,.11H7.9c.12-.19.43-.11.61-.11,11.62-.12,23.55.43,35.11,0Z"/>
  <path class="st11" d="M44.18,54.72v.11h-.56v-.11c.19,0,.38,0,.56,0Z"/>
  <path class="st5" d="M47.88,10.53H4.09l-.22-.21c-.25-3.23-.51-8.01,3.7-8.51,11.99-.23,24.01.17,36.01,0,5.17.45,4.28,4.93,4.31,8.73h-.01Z"/>
  <path class="st7" d="M10.25,37.72c-.8-.06-1.3-.7-1.35-1.48-.09-1.86-.07-3.72.05-5.58-.17-1.09-.04-2.01.38-2.76l-1.82-.04-.28-.2c.12-.19.42-.11.61-.11,2.8-.03,6.86-.3,9.52,0,.75.08,1.36.48,1.58,1.22-.11,2.34.31,5.16.05,7.45-.1.91-.74,1.42-1.63,1.51-2.07.21-4.96.02-7.11,0h0Z"/>
  <path class="st4" d="M10.25,40.29c2.17-.02,5.15-.22,7.22,0,.86.09,1.42.65,1.51,1.51.13,1.24.18,6.24-.05,7.33-.2.94-.92,1.25-1.8,1.33-3,.27-6.38-.21-9.42,0-.16.06-.3-.1-.38-.12l.13-.22h1.99c-.52-.44-.57-1.14-.6-1.78-.16-1.87-.19-4.57.04-6.42.11-.89.39-1.53,1.36-1.65v.02Z"/>
  <path class="st0" d="M10.25,24.96c-.94-.09-1.32-.82-1.37-1.71-.11-2.25-.05-4.81.04-7.08.05-.4.25-.73.47-1.05l-1.64-.03-.3-.21c.12-.19.42-.11.61-.11.97-.01,1.96-.05,2.91.12,2.07.22,4.84-.31,6.83,0,.5.08,1.03.73,1.13,1.22-.09,2.32.29,5.06.05,7.33-.08.76-.61,1.42-1.4,1.51-2.02.24-5.19.02-7.34,0h.01Z"/>
  <path class="st10" d="M52.25,24.85l.17.16c-2.4,5.19-4.79,10.38-7.19,15.58l-.26.03c-.92-.19-1.82-.5-2.7-.92l.02-.42c.16-.49.34-.95.54-1.42,1.54-3.64,3.47-7.4,5.17-11,0-.61.15-1.11.67-1.45.29-.61.75-1.26,1.01-1.79.98.14,1.85.56,2.58,1.23h0Z"/>
  <path class="st10" d="M7.23,27.65c.88-.09,1.9.07,2.8,0-.17.23-.41.3-.61.57-.12.17-.25.4-.28.61.16,2.36-.24,5.06-.01,7.38.08.79.49,1.11,1.13,1.5-1.32,0-3.85.47-4.21-1.22-.22-1.03-.19-6.41-.04-7.55.09-.68.54-1.22,1.22-1.3h0Z"/>
  <path class="st12" d="M7.45,14.89c.86-.07,1.81.05,2.69,0-.15.22-.38.2-.61.45-.18.21-.35.57-.39.84.15,2.33-.24,4.98-.02,7.27.08.79.49,1.11,1.13,1.5-1.32,0-3.85.48-4.21-1.22l-.04-7.55c.26-.8.6-1.22,1.45-1.29Z"/>
  <path class="st6" d="M10.25,40.29c-.63.4-1.05.72-1.13,1.5-.15,1.56-.19,5.76.02,7.27.03.25.14.51.27.73l.72.56h-2.8c-.79-.19-1.1-.48-1.34-1.29l.04-7.55c.36-1.71,2.89-1.21,4.21-1.22h0Z"/>
  <path class="st13" d="M23.55,19.28l19.36-.03c.92.12.76,1.34-.12,1.35h-19.04c-.84,0-1-1.14-.2-1.32Z"/>
  <path class="st13" d="M23.66,28.9l18.91-.03c1.01-.09,1.39,1.11.34,1.35h-19.27c-.82-.11-.79-1.14.03-1.32h0Z"/>
  <path class="st13" d="M42.17,44.65c.33.11.52,1.03.45,1.34h-18.99c-.81-.1-.91-1.22.23-1.35h18.31,0Z"/>
  <path class="st13" d="M41.83,41.63c.32.05.39.5.11.67.09.25.09.47,0,.67h-18.2c-.96-.06-.97-1.28,0-1.34,0,0,18.09,0,18.09,0Z"/>
  <path class="st13" d="M23.43,32.03l19.47-.03c.83.11.83,1.14,0,1.24h-19.27c-.72-.09-.85-.9-.19-1.21h-.01Z"/>
  <path class="st13" d="M23.43,16.26l19.47-.03c.83.11.83,1.14,0,1.24h-19.27c-.74-.1-.8-.86-.2-1.21Z"/>
  <path class="st14" d="M42.28,39.28c-.07.31.16.21.33.28.78.36,1.58.7,2.36,1.06l.4-.06c.5.18,1.85.81,2.27,1.08.12.07.19.2.24.32-.02.06,0,.15,0,.22-.83,1.23-1.92,1.91-3.14,2.68l-.26-.07c-.37-.84-1.34-1.22-2.21-.99l-.21-.17c-.03-.23-.09-.48-.11-.67.08-.21.08-.43,0-.67-.04-.21-.11-.47-.11-.67,0-.8.21-1.6.45-2.35h-.01Z"/>
  <path class="st13" d="M23.55,22.3l9.16-.03c.95.08,1,1.23,0,1.35-2.76.32-6.13-.25-8.96,0-.84,0-1-1.14-.2-1.32Z"/>
  <path class="st13" d="M23.55,35.05l9.28-.03c.87.11.77,1.35-.12,1.35-2.83-.22-6.07.29-8.85,0-.96-.1-1.18-.91-.31-1.32Z"/>
  <path class="st13" d="M23.43,47.81l9.39-.03c.83.11.83,1.14,0,1.24h-9.2c-.72-.09-.85-.9-.19-1.21Z"/>
  <path class="st9" d="M44.74,44.88c-.64.41-1.37,1.12-2.13,1.12-.33-.37-.37-.87-.45-1.34-.05-.29-.07-.68-.11-1.01,1.07-.36,2.33.13,2.69,1.23Z"/>
  <path class="st7" d="M52.25,24.85c.45-.12,3.01.99,3.06,1.15s.01.28-.03.42c-2.05,4.42-4.13,8.82-6.18,13.24-.24.53-1.12,1.93-1.22,2.31-1.02-.33-1.95-.89-2.91-1.34l7.28-15.77h0Z"/>
  <path class="st5" d="M55.83,25.19l-.19.16-5.5-2.69-.02-.26c.53-1.11.88-2.42,2.05-3.04,2.5-1.34,5.24.75,4.73,3.5-.14.78-.74,1.62-1.07,2.34h0Z"/>
  <path class="st2" d="M7.56,1.8c-1.3.44-2.49,1.16-3.08,2.46-.67,1.49-.38,4.54-.39,6.26H1.63c0-1.46-.08-3.03,0-4.47.08-1.36.49-2.43,1.58-3.29,1.42-1.13,2.66-.93,4.36-.96h-.01Z"/>
  <path class="st15" d="M55.83,25.19c-.18.41-.37.83-.56,1.23.06-.27-.14-.23-.29-.31-.86-.46-1.84-.84-2.73-1.25s-1.73-.81-2.58-1.23c.15-.31.25-.82.45-1.23l5.71,2.8h0Z"/>
  <path class="st15" d="M27.98,5.42c.23-.25.81-.35,1.14-.37,4.21.27,8.85-.35,13,0,1.32.11,1.94,1.17.81,2.04-4.73.2-9.51.03-14.25.09-.86-.05-1.27-1.14-.69-1.76h-.01Z"/>
  <path class="st15" d="M12.13,4.63c1.81-.26,2.44,2.25.89,2.91-2.27.97-3.07-2.59-.89-2.91Z"/>
  <path class="st15" d="M6.48,7.25c-1.26-1.26.41-3.52,2.03-2.31,1.74,1.29-.49,3.86-2.03,2.31Z"/>
  <path class="st15" d="M16.83,4.63c2.14-.44,2.54,2.96.39,3.08-1.87.1-2.18-2.71-.39-3.08Z"/>
  <path class="st15" d="M10.28,32.37c.75-.79,1.54.68,1.8.63.3-.05,1.99-2.21,2.42-2.39.64-.27,1.28.17,1.07.84-.06.2-2.66,2.85-2.97,3.08-.39.28-.65.33-1.07.05-.12-.08-1.24-1.19-1.29-1.28-.15-.25-.17-.71.03-.93h0Z"/>
  <path class="st15" d="M14.7,42.99c.62-.13,1.11.36.84.96l-3.17,3.22c-.45.4-2.05-1.24-2.18-1.51-.32-.7.33-1.21,1.03-.92.31.13.64.8.92.65.5-.26,1.54-1.7,2.13-2.13.14-.1.24-.22.42-.26h.01Z"/>
  <path class="st15" d="M14.7,18.05c.56-.12,1.06.44.84.96l-3.17,3.22c-.22.1-.45.1-.67,0-.09-.04-1.39-1.25-1.44-1.35-.19-.37-.24-.8.17-1.03.84-.48,1.29.71,1.65.65.33-.06,2.03-2.31,2.62-2.43v-.02Z"/>
  <path class="st1" d="M41.94,42.97c-.03-.21.02-.45,0-.67.03.16.2.3.1.61,0,0-.1.06-.1.06Z"/>
</svg>