<?xml version="1.0" encoding="UTF-8"?>
<svg id="Layer_1" xmlns="http://www.w3.org/2000/svg" version="1.1" viewBox="0 0 144 144">
  <!-- Generator: Adobe Illustrator 29.0.1, SVG Export Plug-In . SVG Version: 2.1.0 Build 192)  -->
  <defs>
    <style>
      .st0 {
        fill: #005b9b;
      }

      .st1 {
        fill: #fff;
      }

      .st2 {
        fill: #0e5aa8;
      }
    </style>
  </defs>
  <g>
    <circle class="st1" cx="73.58" cy="74.86" r="61.98"/>
    <g>
      <circle class="st1" cx="73.58" cy="74.86" r="57.1"/>
      <path class="st2" d="M73.58,133.24c-32.19,0-58.38-26.19-58.38-58.38s26.19-58.39,58.38-58.39,58.39,26.19,58.39,58.39-26.19,58.38-58.39,58.38ZM73.58,19.05c-30.77,0-55.81,25.04-55.81,55.81s25.04,55.81,55.81,55.81,55.81-25.04,55.81-55.81-25.04-55.81-55.81-55.81Z"/>
    </g>
  </g>
  <g>
    <g id="g1527">
      <path id="path1599" class="st0" d="M34.09,49.63l11.08,37.4h.46l6.93-23.18,6.93,23.18h.46l8.3-28.02c1.59-5.35.8-4.76,5.53-4.76h3.9l-7.72,13.39h3.1c2,0,4.11.72,5.22,2.17.16.2.29.42.42.65.03.05.06.11.09.16.12.23.24.47.33.73.39,1.02.59,2.25.59,3.68,0,2.03-.45,3.77-1.34,5.22-.24.39-.5.73-.77,1.01-.17.18-.35.34-.54.48-.02.01-.03.02-.05.03-.19.14-.38.26-.58.35-.18.09-.38.15-.57.19-.05.01-.1.02-.15.03-.2.04-.4.07-.61.07,0,0-.02,0-.03,0,0,0-.02,0-.03,0,0,0,0,0-.01,0-.01,0-.02,0-.03,0-.28,0-.55-.03-.81-.07,0,0,0,0,0,0-.07-.01-.14-.04-.21-.06-.01,0-.03,0-.04-.01-.02,0-.03-.01-.05-.02-.18-.04-.36-.08-.52-.15-.27-.1-.52-.23-.77-.38-.25-.15-.48-.33-.71-.53-.48-.52-.84-1.12-1.23-1.7h-4.71c.32.95.72,1.81,1.17,2.6v.02c.04.09.1.17.16.26.33.53.68,1.03,1.07,1.48.35.4.72.77,1.12,1.12.2.17.4.33.61.48h0c.21.15.42.29.63.42.13.08.27.15.41.22.02,0,.04.02.05.03.07.04.13.07.2.11,0,0,0,0,0,0,.22.11.45.2.68.29,0,0,0,0,0,0h0c.23.08.46.16.7.22,0,0,0,0,.01,0h0c.24.06.48.11.72.16,0,0,.01,0,.02,0,.22.04.44.06.67.08,0,0,.01,0,.02,0,0,0,.02,0,.02,0,.01,0,.03,0,.04,0h0s.01,0,.02,0h0c.14.01.28.01.42.02.03,0,.06,0,.09,0,.02,0,.04,0,.05,0,.07,0,.14,0,.21,0,0,0,.02,0,.03,0,.21,0,.4-.02.61-.03h0c.22-.03.44-.03.65-.06.03,0,.06,0,.09-.01.4-.06.78-.14,1.16-.25,1.75-.49,3.25-1.52,4.49-3.12,1.8-2.31,2.7-5.16,2.7-8.54,0-2.74-.62-5.12-1.85-7.15-.93-1.54-2.21-2.72-3.82-3.54-.05-.03-.1-.05-.15-.07-.21-.1-.42-.2-.64-.29-.27-.11-.55-.21-.84-.31,2.7-4.68,5.45-9.33,8.11-14.04h-14.58c-4.21,0-5.06.72-6.52,5.69l-5.02,17.07-6.7-22.76h-4.85l1.11,3.72c.92,3.1.84,4.62-.02,7.55l-3.39,11.49-6.69-22.76h-4.85Z"/>
      <path id="path6" d="M109.52,49.63c-.95,0-1.81.34-2.45,1-.69.7-1.07,1.6-1.07,2.53s.36,1.8,1.03,2.47c.68.69,1.55,1.06,2.49,1.06s1.82-.37,2.51-1.05c.67-.65,1.03-1.51,1.03-2.48s-.37-1.83-1.02-2.48c-.68-.69-1.56-1.05-2.52-1.05ZM112.6,53.19c0,.81-.32,1.57-.89,2.13-.61.59-1.36.9-2.2.9-.78,0-1.56-.32-2.14-.91-.58-.59-.9-1.35-.9-2.15s.33-1.59.93-2.2c.56-.57,1.31-.87,2.14-.87s1.6.32,2.19.91c.57.57.87,1.33.87,2.19ZM109.62,51.09h-1.51v4h.76v-1.71h.75l.81,1.71h.84l-.89-1.83c.58-.12.91-.51.91-1.08,0-.73-.55-1.1-1.67-1.1ZM109.48,51.58c.71,0,1.03.2,1.03.69s-.32.64-1.01.64h-.64v-1.33h.62Z"/>
      <path id="path8" d="M103.58,49.42l.39,2.39c.37,2.23,0,3.15-1,5.05l-1.39,2.66s-1.07-2.26-2.84-3.51c-1.49-1.05-2.47-1.28-3.99-.97-1.95.4-4.17,2.74-5.14,5.62-1.16,3.45-1.17,5.12-1.21,6.65-.07,2.46.32,3.91.32,3.91,0,0-1.69-3.12-1.67-7.7.01-3.26.52-6.22,2.03-9.15,1.33-2.57,3.3-4.11,5.06-4.29,1.81-.19,3.24.69,4.35,1.63,1.16.99,2.34,3.16,2.34,3.16l2.74-5.46Z"/>
      <path id="path10" d="M103.92,76.43s-1.23,2.2-1.99,3.04c-.77.85-2.14,2.34-3.83,3.08-1.69.75-2.58.89-4.25.73-1.67-.16-3.22-1.13-3.77-1.53-.54-.4-1.93-1.59-2.72-2.7-.79-1.11-2.01-3.32-2.01-3.32,0,0,.68,2.22,1.11,3.16.25.54,1,2.2,2.08,3.65,1,1.35,2.95,3.67,5.91,4.19,2.96.52,5-.81,5.5-1.13.5-.32,1.67-1.08,2.34-1.8.7-.75,1.07-1.29,1.54-2.23.34-.69.63-2.3.44-3.29l-.35-1.84Z"/>
    </g>
    <g id="text941-0-1-2-8">
      <path id="path4684" d="M35.26,100.3v-9.1h2.25l1.46,4.05c.09.26.18.53.27.82.08.29.17.57.27.85h.06c.09-.28.18-.56.25-.85.08-.29.17-.56.27-.82l1.44-4.05h2.23v9.1h-1.87v-3.33c0-.3.01-.63.04-.99.04-.37.07-.74.11-1.12.05-.37.08-.7.11-.99h-.06l-.74,2.16-1.3,3.47h-1.13l-1.3-3.47-.73-2.16h-.06c.04.29.07.62.11.99.04.37.07.74.1,1.12.04.36.06.69.06.99v3.33h-1.84Z"/>
      <path id="path4686" d="M50.78,100.3v-9.1h5.69v1.73h-3.64v1.83h3.1v1.72h-3.1v2.09h3.78v1.73h-5.83Z"/>
      <path id="path4688" d="M63.3,100.3v-9.1h2.25l1.46,4.05c.09.26.18.53.27.82.08.29.17.57.27.85h.06c.09-.28.18-.56.25-.85.08-.29.17-.56.27-.82l1.44-4.05h2.23v9.1h-1.87v-3.33c0-.3.01-.63.04-.99.04-.37.07-.74.11-1.12.05-.37.08-.7.11-.99h-.06l-.74,2.16-1.3,3.47h-1.13l-1.3-3.47-.73-2.16h-.06c.04.29.07.62.11.99s.07.74.1,1.12c.04.36.06.69.06.99v3.33h-1.84Z"/>
      <path id="path4690" d="M78.82,100.3v-9.1h3.11c.63,0,1.2.07,1.7.21.5.13.9.36,1.2.68.3.33.45.78.45,1.37,0,.4-.11.8-.32,1.19-.2.38-.49.64-.86.78v.06c.47.12.85.36,1.16.71.32.34.47.82.47,1.42,0,.62-.16,1.13-.47,1.52-.32.39-.74.68-1.27.88-.53.19-1.13.28-1.79.28h-3.38ZM80.87,94.84h.96c.5,0,.86-.1,1.09-.29.23-.2.35-.46.35-.78,0-.35-.12-.6-.35-.75-.23-.15-.59-.22-1.07-.22h-.98v2.05ZM80.87,98.71h1.16c1.13,0,1.69-.41,1.69-1.23,0-.4-.14-.68-.42-.85-.28-.18-.7-.27-1.27-.27h-1.16v2.34Z"/>
      <path id="path4692" d="M92.14,100.3v-9.1h5.69v1.73h-3.64v1.83h3.1v1.72h-3.1v2.09h3.78v1.73h-5.83Z"/>
      <path id="path4694" d="M104.67,100.3v-9.1h3.28c.64,0,1.23.09,1.76.27.53.17.95.46,1.27.86.32.41.47.98.47,1.7,0,.67-.15,1.22-.45,1.66-.29.43-.68.75-1.17.96l2.06,3.64h-2.3l-1.74-3.28h-1.13v3.28h-2.05ZM106.72,95.39h1.06c.54,0,.95-.11,1.23-.33.29-.23.43-.57.43-1.02s-.14-.76-.43-.93c-.28-.18-.69-.27-1.23-.27h-1.06v2.55Z"/>
    </g>
  </g>
</svg>